<svg xmlns="http://www.w3.org/2000/svg" viewBox="0 0 76 80"><style>.st0{display:none;enable-background:new}.st1{display:inline}.st2{fill:#b31b1b}.st3{opacity:.5}.st4{fill:#2099b7}.st5{fill-rule:evenodd;clip-rule:evenodd;fill:none;stroke:#b31b1b;stroke-miterlimit:100;stroke-opacity:.5}</style><g id="polys" class="st0"><g id="poly_1" class="st1"><path class="st2" d="M28.5 22.3l7.5 4.3v8.7l-7.5 4.3-7.5-4.3v-8.7l7.5-4.3m0-1.1L20 26.1v9.8l8.5 4.9 8.5-4.9v-9.8l-8.5-4.9z"/></g><g id="poly_2" class="st1"><path class="st2" d="M47 22.3l7.5 4.3v8.7L47 39.7l-7.5-4.3v-8.7l7.5-4.4m0-1.1l-8.5 4.9v9.8l8.5 4.9 8.5-4.9v-9.8L47 21.2z"/></g><g id="poly_3" class="st1"><path class="st2" d="M37.5 38.3l7.5 4.3v8.7l-7.5 4.3-7.5-4.3v-8.7l7.5-4.3m0-1.1L29 42.1v9.8l8.5 4.9 8.5-4.9v-9.8l-8.5-4.9z"/></g><g id="poly_2_2_" class="st1"><g class="st3"><path class="st4" d="M65.5 22.3l7.5 4.3v8.7l-7.5 4.3-7.5-4.3v-8.7l7.5-4.3m0-1.1L57 26.1v9.8l8.5 4.9 8.5-4.9v-9.8l-8.5-4.9z"/></g></g><g id="poly_2_4_" class="st1"><g class="st3"><path class="st4" d="M75 38.3l7.5 4.3v8.7L75 55.7l-7.5-4.3v-8.7l7.5-4.4m0-1.1l-8.5 4.9v9.8l8.5 4.9 8.5-4.9v-9.8L75 37.2z"/></g></g><g id="poly_2_6_" class="st1"><g class="st3"><path class="st2" d="M47 54.3l7.5 4.3v8.7L47 71.7l-7.5-4.3v-8.7l7.5-4.4m0-1.1l-8.5 4.9v9.8l8.5 4.9 8.5-4.9v-9.8L47 53.2z"/></g></g><g id="poly_2_8_" class="st1"><g class="st3"><path class="st4" d="M28.5 54.3l7.5 4.3v8.7l-7.5 4.3-7.5-4.3v-8.7l7.5-4.3m0-1.1L20 58.1v9.8l8.5 4.9 8.5-4.9v-9.8l-8.5-4.9z"/></g></g><g id="poly_2_10_" class="st1"><g class="st3"><path class="st2" d="M10 22.3l7.5 4.3v8.7L10 39.7l-7.5-4.3v-8.7l7.5-4.4m0-1.1l-8.5 4.9v9.8l8.5 4.9 8.5-4.9v-9.8L10 21.2z"/></g></g><g id="poly_2_12_" class="st1"><g class="st3"><path class="st2" d="M19 6.3l7.5 4.3v8.7L19 23.7l-7.5-4.3v-8.7L19 6.3m0-1.1l-8.5 4.9v9.8l8.5 4.9 8.5-4.9v-9.8L19 5.2z"/></g></g></g><g id="polys_repeat"><path class="st2" d="M19.5 22.3l7.5 4.3v8.7l-7.5 4.3-7.5-4.3v-8.7l7.5-4.3m0-1.1L11 26.1v9.8l8.5 4.9 8.5-4.9v-9.8l-8.5-4.9z" id="poly_1_2_"/><path class="st2" d="M38 22.3l7.5 4.3v8.7L38 39.7l-7.5-4.3v-8.7l7.5-4.4m0-1.1l-8.5 4.9v9.8l8.5 4.9 8.5-4.9v-9.8L38 21.2z" id="poly_2_26_"/><path class="st2" d="M28.5 38.3l7.5 4.3v8.7l-7.5 4.3-7.5-4.3v-8.7l7.5-4.3m0-1.1L20 42.1v9.8l8.5 4.9 8.5-4.9v-9.8l-8.5-4.9z" id="poly_3_2_"/><g class="st3" id="poly_2_24_"><path class="st4" d="M56.5 22.3l7.5 4.3v8.7l-7.5 4.3-7.5-4.3v-8.7l7.5-4.3m0-1.1L48 26.1v9.8l8.5 4.9 8.5-4.9v-9.8l-8.5-4.9z"/></g><g class="st3" id="poly_2_22_"><path class="st4" d="M66 38.3l7.5 4.3v8.7L66 55.7l-7.5-4.3v-8.7l7.5-4.4m0-1.1l-8.5 4.9v9.8l8.5 4.9 8.5-4.9v-9.8L66 37.2z"/></g><g class="st3" id="poly_2_20_"><path class="st2" d="M38 54.3l7.5 4.3v8.7L38 71.7l-7.5-4.3v-8.7l7.5-4.4m0-1.1l-8.5 4.9v9.8l8.5 4.9 8.5-4.9v-9.8L38 53.2z"/></g><g class="st3" id="poly_2_18_"><path class="st4" d="M19.5 54.3l7.5 4.3v8.7l-7.5 4.3-7.5-4.3v-8.7l7.5-4.3m0-1.1L11 58.1v9.8l8.5 4.9 8.5-4.9v-9.8l-8.5-4.9z"/></g><g class="st3" id="poly_2_14_"><path class="st2" d="M10 6.3l7.5 4.3v8.7L10 23.7l-7.5-4.3v-8.7L10 6.3m0-1.1l-8.5 4.9v9.8l8.5 4.9 8.5-4.9v-9.8L10 5.2z"/></g><path class="st5" d="M1 40.8l8.5-4.9v-9.8L1 21.2m74.5 19.6L67 35.9v-9.8l8.5-4.9"/></g></svg>