<?xml version="1.0" encoding="utf-8"?>
<!-- Generator: Adobe Illustrator 21.1.0, SVG Export Plug-In . SVG Version: 6.00 Build 0)  -->
<svg version="1.1" xmlns="http://www.w3.org/2000/svg" xmlns:xlink="http://www.w3.org/1999/xlink" x="0px" y="0px"
	 viewBox="0 0 76 80" style="enable-background:new 0 0 76 80;" xml:space="preserve">
<style type="text/css">
	.st0{display:none;enable-background:new    ;}
	.st1{display:inline;}
	.st2{fill:#B31B1B;}
	.st3{opacity:0.5;}
	.st4{fill:#2099B7;}
	.st5{fill-rule:evenodd;clip-rule:evenodd;fill:none;stroke:#B31B1B;stroke-miterlimit:100;stroke-opacity:0.5;}
</style>
<g id="polys" class="st0">
	<g id="poly_1" class="st1">
		<g>
			<path class="st2" d="M28.5,22.3l7.5,4.3v8.7l-7.5,4.3L21,35.3v-8.7L28.5,22.3 M28.5,21.2L20,26.1v9.8l8.5,4.9l8.5-4.9v-9.8
				L28.5,21.2L28.5,21.2z"/>
		</g>
	</g>
	<g id="poly_2" class="st1">
		<g>
			<path class="st2" d="M47,22.3l7.5,4.3v8.7L47,39.7l-7.5-4.3v-8.7L47,22.3 M47,21.2l-8.5,4.9v9.8l8.5,4.9l8.5-4.9v-9.8L47,21.2
				L47,21.2z"/>
		</g>
	</g>
	<g id="poly_3" class="st1">
		<g>
			<path class="st2" d="M37.5,38.3l7.5,4.3v8.7l-7.5,4.3L30,51.3v-8.7L37.5,38.3 M37.5,37.2L29,42.1v9.8l8.5,4.9l8.5-4.9v-9.8
				L37.5,37.2L37.5,37.2z"/>
		</g>
	</g>
	<g id="poly_2_2_" class="st1">
		<g class="st3">
			<path class="st4" d="M65.5,22.3l7.5,4.3v8.7l-7.5,4.3L58,35.3v-8.7L65.5,22.3 M65.5,21.2L57,26.1v9.8l8.5,4.9l8.5-4.9v-9.8
				L65.5,21.2L65.5,21.2z"/>
		</g>
	</g>
	<g id="poly_2_4_" class="st1">
		<g class="st3">
			<path class="st4" d="M75,38.3l7.5,4.3v8.7L75,55.7l-7.5-4.3v-8.7L75,38.3 M75,37.2l-8.5,4.9v9.8l8.5,4.9l8.5-4.9v-9.8L75,37.2
				L75,37.2z"/>
		</g>
	</g>
	<g id="poly_2_6_" class="st1">
		<g class="st3">
			<path class="st2" d="M47,54.3l7.5,4.3v8.7L47,71.7l-7.5-4.3v-8.7L47,54.3 M47,53.2l-8.5,4.9v9.8l8.5,4.9l8.5-4.9v-9.8L47,53.2
				L47,53.2z"/>
		</g>
	</g>
	<g id="poly_2_8_" class="st1">
		<g class="st3">
			<path class="st4" d="M28.5,54.3l7.5,4.3v8.7l-7.5,4.3L21,67.3v-8.7L28.5,54.3 M28.5,53.2L20,58.1v9.8l8.5,4.9l8.5-4.9v-9.8
				L28.5,53.2L28.5,53.2z"/>
		</g>
	</g>
	<g id="poly_2_10_" class="st1">
		<g class="st3">
			<path class="st2" d="M10,22.3l7.5,4.3v8.7L10,39.7l-7.5-4.3v-8.7L10,22.3 M10,21.2l-8.5,4.9v9.8l8.5,4.9l8.5-4.9v-9.8L10,21.2
				L10,21.2z"/>
		</g>
	</g>
	<g id="poly_2_12_" class="st1">
		<g class="st3">
			<path class="st2" d="M19,6.3l7.5,4.3v8.7L19,23.7l-7.5-4.3v-8.7L19,6.3 M19,5.2l-8.5,4.9v9.8l8.5,4.9l8.5-4.9v-9.8L19,5.2L19,5.2
				z"/>
		</g>
	</g>
</g>
<g id="polys_repeat">
	<g id="poly_1_2_">
		<g>
			<path class="st2" d="M19.5,22.3l7.5,4.3v8.7l-7.5,4.3L12,35.3v-8.7L19.5,22.3 M19.5,21.2L11,26.1v9.8l8.5,4.9l8.5-4.9v-9.8
				L19.5,21.2L19.5,21.2z"/>
		</g>
	</g>
	<g id="poly_2_26_">
		<g>
			<path class="st2" d="M38,22.3l7.5,4.3v8.7L38,39.7l-7.5-4.3v-8.7L38,22.3 M38,21.2l-8.5,4.9v9.8l8.5,4.9l8.5-4.9v-9.8L38,21.2
				L38,21.2z"/>
		</g>
	</g>
	<g id="poly_3_2_">
		<g>
			<path class="st2" d="M28.5,38.3l7.5,4.3v8.7l-7.5,4.3L21,51.3v-8.7L28.5,38.3 M28.5,37.2L20,42.1v9.8l8.5,4.9l8.5-4.9v-9.8
				L28.5,37.2L28.5,37.2z"/>
		</g>
	</g>
	<g id="poly_2_24_">
		<g class="st3">
			<path class="st4" d="M56.5,22.3l7.5,4.3v8.7l-7.5,4.3L49,35.3v-8.7L56.5,22.3 M56.5,21.2L48,26.1v9.8l8.5,4.9l8.5-4.9v-9.8
				L56.5,21.2L56.5,21.2z"/>
		</g>
	</g>
	<g id="poly_2_22_">
		<g class="st3">
			<path class="st4" d="M66,38.3l7.5,4.3v8.7L66,55.7l-7.5-4.3v-8.7L66,38.3 M66,37.2l-8.5,4.9v9.8l8.5,4.9l8.5-4.9v-9.8L66,37.2
				L66,37.2z"/>
		</g>
	</g>
	<g id="poly_2_20_">
		<g class="st3">
			<path class="st2" d="M38,54.3l7.5,4.3v8.7L38,71.7l-7.5-4.3v-8.7L38,54.3 M38,53.2l-8.5,4.9v9.8l8.5,4.9l8.5-4.9v-9.8L38,53.2
				L38,53.2z"/>
		</g>
	</g>
	<g id="poly_2_18_">
		<g class="st3">
			<path class="st4" d="M19.5,54.3l7.5,4.3v8.7l-7.5,4.3L12,67.3v-8.7L19.5,54.3 M19.5,53.2L11,58.1v9.8l8.5,4.9l8.5-4.9v-9.8
				L19.5,53.2L19.5,53.2z"/>
		</g>
	</g>
	<g id="poly_2_14_">
		<g class="st3">
			<path class="st2" d="M10,6.3l7.5,4.3v8.7L10,23.7l-7.5-4.3v-8.7L10,6.3 M10,5.2l-8.5,4.9v9.8l8.5,4.9l8.5-4.9v-9.8L10,5.2L10,5.2
				z"/>
		</g>
	</g>
	<polyline class="st5" points="1,40.8 9.5,35.9 9.5,26.1 1,21.2 	"/>
	<polyline class="st5" points="75.5,40.8 67,35.9 67,26.1 75.5,21.2 	"/>
</g>
</svg>
