<svg width="380" height="87" viewBox="0 0 380 87" xmlns="http://www.w3.org/2000/svg" xmlns:xlink="http://www.w3.org/1999/xlink"><title>ILR_Cornell_Lockup_White Simple</title><defs><path id="path-1" d="M.06.045h86.894V87H.06z"/></defs><g id="ILR_Cornell_Lockup_White-Simple" fill="none" fill-rule="evenodd"><g id="Group-3" transform="translate(108)" stroke="#FFFFFE" stroke-width=".5"><path d="M.707.043v86.753" id="Stroke-1"/></g><path d="M138.197 60.331V22.934l-.551-.55h-6.599l-.549.55v37.397l.549.55h6.599l.551-.55zm33.624 0v-5.5l-.551-.55h-17.049l-.549-.549V22.934l-.55-.55h-6.6l-.55.55v37.397l.55.55h24.748l.551-.55zm35.246-26.398c0-7.699-5.499-11.549-13.199-11.549h-18.149l-.549.55v37.397l.549.55h6.6l.55-.55V46.032l.55-.55h5.5l1.099.55 10.999 14.299 1.101.55h3.299l.549-.55v-5.5l-7.148-9.349v-.55c4.398-1.1 8.249-4.949 8.249-10.999zm-7.699 0c0 3.85-2.2 4.95-5.5 4.95h-10.449l-.55-.55v-8.8l.55-.549h10.449c3.3 0 5.5 1.099 5.5 4.949zm55.545 15.949c0-7.7-6.05-10.999-13.749-12.099-7.7-1.1-9.9-2.2-9.9-5.5 0-2.2 1.651-3.849 6.6-3.849 6.05 0 7.699 1.649 7.699 4.949l.551.55h6.599l.549-.55c0-6.599-4.399-11.549-14.848-11.549-10.45 0-14.85 4.95-14.85 10.449 0 7.7 6.051 10.449 13.749 11.549 7.7 1.1 9.9 2.2 9.9 6.05 0 3.3-2.749 4.949-7.7 4.949-6.598 0-8.799-2.199-8.799-6.049l-.549-.55h-6.601l-.55.55c0 7.149 4.95 12.649 15.95 12.649 11.548 0 15.949-5.5 15.949-11.549zm9.255-2.75c0-4.95 2.2-7.699 6.048-7.699 2.75 0 4.401 1.1 4.951 2.749l.549.55h6.601l.549-.55c-1.1-6.599-6.6-9.349-12.65-9.349-8.249 0-13.748 5.5-13.748 14.299s5.499 14.299 13.748 14.299c6.05 0 11.55-2.75 12.65-9.349l-.549-.55h-6.601l-.549.55c-.55 1.65-2.201 2.749-4.951 2.749-3.848 0-6.048-2.749-6.048-7.699zm46.838 13.199V43.832c0-6.599-3.848-10.999-10.449-10.999-3.849 0-6.049 1.65-7.148 2.75h-.55V22.934l-.551-.55h-6.599l-.55.55v37.397l.55.55h6.599l.551-.55V46.582c0-4.95 2.199-7.149 6.049-7.149 3.3 0 4.399 2.199 4.399 4.949v15.949l.551.55h6.599l.549-.55zm29.791-13.199c0-8.799-5.499-14.299-13.749-14.299-8.249 0-13.749 5.5-13.749 14.299s5.5 14.299 13.749 14.299c8.25 0 13.749-5.5 13.749-14.299zm-7.699 0c0 4.95-2.199 7.699-6.05 7.699-3.848 0-6.048-2.749-6.048-7.699 0-4.95 2.2-7.699 6.048-7.699 3.851 0 6.05 2.749 6.05 7.699zm36.43 0c0-8.799-5.5-14.299-13.749-14.299s-13.749 5.5-13.749 14.299 5.5 14.299 13.749 14.299 13.749-5.5 13.749-14.299zm-7.7 0c0 4.95-2.199 7.699-6.049 7.699-3.851 0-6.051-2.749-6.051-7.699 0-4.95 2.2-7.699 6.051-7.699 3.85 0 6.049 2.749 6.049 7.699zm17.885 13.199V22.934l-.55-.55h-6.601l-.55.55v37.397l.55.55h6.601l.55-.55z" id="Fill-4" fill="#FFFFFE"/><path d="M25.014 39.884h17.71v3.885a7.302 7.302 0 0 0-1.991-.066c-.527.049-1.017.1-1.476.149-.791.085-1.472.158-2.059.171-.746.017-1.34.018-1.831.017-.353 0-.656 0-.918.006l-.714.016v3.752h-1.748v2.039h1.748v3.75h-1.748v2.033h1.748v4.172l.689.036c.041.004.991.053 2.22.027 1.241-.027 2.112-.108 2.883-.176.792-.072 1.478-.135 2.413-.135.367-.004.49.11.689.36.026.033.062.072.095.109v10.26c-4.295-2.112-17.71-9.642-17.71-21.242v-9.163zm.002-15.867l37.239-.005.001 13.923H25.015l.001-13.918zM44.391 58.29V45.347c.094-.045.207-.089.361-.125a5.85 5.85 0 0 1 1.677-.061c.523.045 1.007.093 1.459.146.82.085 1.528.162 2.173.179.65.014 1.189.014 1.643.014h.391l.001 12.911a31.32 31.32 0 0 1-1.411 0c-1.19-.026-2.002-.1-2.786-.171-.804-.074-1.524-.144-2.588-.141-.378 0-.67.082-.92.191zm17.867-8.768c0 11.239-13.803 18.859-17.867 20.856V60.152c.077-.072.147-.147.203-.211.203-.237.332-.379.721-.381.94.014 1.647.061 2.453.135.771.068 1.641.149 2.882.176a27.842 27.842 0 0 0 2.217-.027l.692-.036-.001-3.819h1.619v-2.038h-1.619l-.001-3.699h1.62v-2.035h-1.621l-.001-4.155-.711-.016a32.302 32.302 0 0 0-.916-.006c-.497-.006-1.085 0-1.832-.017-.582-.013-1.266-.086-2.053-.171-.459-.049-.954-.1-1.467-.146a7.163 7.163 0 0 0-2.138.088c-.018.004-.03.01-.047.014v-3.924h17.866l.001 9.638zm-19.534 8.705a2.16 2.16 0 0 0-.737-.128h-.047c-1.001 0-1.749.069-2.544.139-.784.073-1.597.147-2.788.173-.547.011-1.039.007-1.411 0V45.5h.17c.496.004 1.105 0 1.866-.014.647-.017 1.355-.094 2.176-.182.452-.05.932-.098 1.471-.146a6.132 6.132 0 0 1 1.641.06c.08.018.137.043.203.064v12.945zm-9.48 8.416c4.954 3.905 9.832 5.969 10.039 6.054l.377.16.379-.162c.206-.091 5.069-2.184 10.006-6.046 6.648-5.201 10.163-11.122 10.163-17.127l-.006-27.457-41.133.003-.001 26.979c0 6.255 3.518 12.338 10.176 17.596z" id="Fill-5" fill="#FFFFFE"/><path d="M39.102 32.381c-.01.364-.475.748-.862 1.005-.897.603-2.247 1.37-2.887 1.728-.609-.365-1.874-1.125-2.77-1.729-.585-.388-.931-.774-.95-1.058-.003-.107-.004-.973-.004-2.104h7.479c0 1.138-.002 2.021-.006 2.158zm-7.47-5.512h7.473l.002 1.893H31.63l.002-1.893zm8.931-1.459H30.17v.728c-.004 2.271-.006 6.109.009 6.285.049.786.57 1.499 1.588 2.177 1.255.842 3.126 1.937 3.205 1.984l.356.209.359-.198c.086-.047 2.104-1.146 3.365-1.995 1.474-.983 1.5-1.879 1.51-2.177.012-.163.008-3.507.001-6.285v-.728z" id="Fill-6" fill="#FFFFFE"/><path d="M52.737 27.358l-3.654 2.64a983.6 983.6 0 0 1 0-3.436h7.706c.004 1.142.008 2.437.008 3.506l-4.06-2.71zm4.052 4.886c-.008.376-.487.774-.889 1.046-.927.618-2.326 1.408-2.978 1.774a73.998 73.998 0 0 1-2.849-1.774c-.285-.191-.952-.682-.983-1.109-.002-.04-.002-.175-.003-.384l3.682-2.659 4.025 2.682c-.001.223-.003.373-.005.424zm1.461-7.143H47.624v.73c-.002 2.852-.002 6.282.008 6.46.059.791.589 1.519 1.627 2.209 1.283.862 3.2 1.986 3.282 2.034l.355.209.362-.2c.086-.043 2.158-1.17 3.453-2.043 1.512-1.008 1.534-1.922 1.539-2.225.011-.162.008-3.595.001-6.445l-.001-.729z" id="Fill-7" fill="#FFFFFE"/><path d="M46.287 48.238l.695.07c.472.055.881.095 1.236.103l2.149.062.034-1.465-2.147-.058a13.827 13.827 0 0 1-1.116-.092l-.71-.071a3.554 3.554 0 0 0-.538-.018l.063 1.457c.1-.004.212 0 .334.012" id="Fill-8" fill="#FFFFFE"/><path d="M48.265 50.999c-.306-.01-.658-.049-1.059-.091a32.205 32.205 0 0 0-.759-.078 4.364 4.364 0 0 0-.526-.019l.024 1.461c.103-.004.22 0 .355.013.27.025.519.051.752.076.447.048.838.088 1.179.098.448.005 1.101.026 1.587.035l.561.016.034-1.457-.559-.018c-.485-.011-1.142-.031-1.589-.036" id="Fill-9" fill="#FFFFFE"/><path d="M48.266 55.041a14.146 14.146 0 0 1-1.077-.095 34.954 34.954 0 0 0-.74-.074c-.194-.021-.372-.028-.537-.021l.044 1.458c.1 0 .212 0 .344.015.258.025.504.054.73.073.456.052.852.092 1.199.103l.606.015 1.546.038.029-1.463c-.241-.005-.926-.018-1.536-.037l-.608-.012" id="Fill-10" fill="#FFFFFE"/><path d="M39.031 48.394c.357-.006.764-.051 1.236-.103.219-.022.452-.046.699-.074.114-.007.23-.015.331-.01l.022-1.464c-.15 0-.318.007-.489.023-.258.022-.498.05-.721.076-.423.042-.786.087-1.111.09l-2.146.055.034 1.463 2.145-.056" id="Fill-11" fill="#FFFFFE"/><path d="M40.123 50.88c-.424.047-.792.087-1.113.095l-2.147.057.034 1.462 2.146-.056c.359-.009.765-.055 1.237-.105l.686-.071c.111-.009.219-.014.32-.009l.066-1.46c-.151-.008-.326 0-.512.015l-.717.072" id="Fill-12" fill="#FFFFFE"/><path d="M40.124 54.92c-.425.048-.791.091-1.185.096-.679.019-1.756.052-2.073.06l.027 1.459 2.152-.057c.356-.01.763-.055 1.237-.105l.709-.071c.109-.013.216-.015.316-.013l.022-1.458a4.21 4.21 0 0 0-.487.015l-.718.074" id="Fill-13" fill="#FFFFFE"/><path d="M6.589 43.755c1.827 0 2.946-1.168 3.082-3.198.02-.399-.01-.84-.109-1.383l-.034-.178-1.507-.014.141.309c.108.242.172.752.147 1.178-.068 1.056-.862 1.702-1.981 1.625-1.138-.072-1.861-.81-1.8-1.84.022-.334.08-.705.357-1.118l.188-.292-1.487-.218-.07.149a3.955 3.955 0 0 0-.344 1.369c-.131 2.122 1.04 3.47 3.137 3.602.094.006.189.009.28.009" id="Fill-14" fill="#FFFFFE"/><path d="M5.863 33.129c.22-.787.889-.952 1.412-.952.247 0 .515.04.778.114.639.183 1.137.516 1.362.918.157.283.186.602.088.956-.226.789-.883.954-1.396.954-.26 0-.538-.043-.831-.124-.829-.237-1.698-.866-1.413-1.866zm.965 3.458a4.41 4.41 0 0 0 1.17.171c1.387 0 2.413-.809 2.815-2.221.24-.843.172-1.641-.198-2.3-.403-.732-1.136-1.255-2.112-1.531a4.093 4.093 0 0 0-1.128-.166c-1.395 0-2.424.809-2.823 2.218-.518 1.814.356 3.279 2.276 3.829z" id="Fill-15" fill="#FFFFFE"/><path d="M9.841 26.461l-.08.142-1.01-.54.076-.142c.255-.469.528-.859.959-.631.153.083.243.179.281.299.079.255-.094.619-.226.872zm3.278 1.93l-2.151-1.15.07-.133c.201-.385.358-.352.69-.312l2.099.268.828-1.565-2.789-.29a1.83 1.83 0 0 0-.545.029 1.563 1.563 0 0 0-.849-1.453c-.316-.166-.619-.252-.903-.252-1.019 0-1.56 1.028-2.039 1.936l-.73 1.37 5.568 2.967.751-1.415z" id="Fill-16" fill="#FFFFFE"/><path id="Fill-17" fill="#FFFFFE" d="M16.598 22.904l-2.861-2.372 4.059.923 1.13-1.361-4.855-4.03-.988 1.197 2.861 2.373-4.053-.937-1.137 1.373 4.855 4.024.989-1.19"/><path id="Fill-18" fill="#FFFFFE" d="M23.615 16.085l-.859-1.059-1.761 1.434-.765-.941 1.607-1.304-.867-1.056-1.6 1.304-.635-.784 1.747-1.421-.86-1.058-2.987 2.433 3.98 4.893 3-2.441"/><path id="Fill-19" fill="#FFFFFE" d="M28.852 12.959l-.674-1.193-1.953 1.1L23.8 8.559l-1.397.79 3.09 5.493 3.359-1.883"/><path id="Fill-20" fill="#FFFFFE" d="M34.148 10.93l-.468-1.282-2.109.765-1.683-4.646-1.506.546 2.145 5.927 3.621-1.31"/><path d="M40.498 9.886c.125 0 .254-.007.385-.02.873-.074 1.514-.347 1.911-.813.374-.445.531-1.063.465-1.831l-.326-3.958-1.596.13.298 3.6c.105 1.27-.404 1.475-.859 1.518-.041 0-.08.004-.116.004-.374 0-.886-.141-.987-1.36l-.295-3.598-1.593.132.327 3.959c.121 1.461.942 2.237 2.386 2.237" id="Fill-21" fill="#FFFFFE"/><path id="Fill-22" fill="#FFFFFE" d="M47.717 6.12l1.363 3.939 1.755.238.848-6.252-1.535-.208-.497 3.687-1.361-3.937-1.759-.239-.844 6.255 1.534.206.496-3.689"/><path id="Fill-23" fill="#FFFFFE" d="M56.418 5.396l-1.524-.483-1.891 6.022 1.526.477 1.889-6.016"/><path id="Fill-24" fill="#FFFFFE" d="M64.325 8.939l-1.442-.725-3.042 3.096.675-4.288-1.525-.778-.937 6.599 1.553.781 4.718-4.685"/><path id="Fill-25" fill="#FFFFFE" d="M65.903 17.957l.841-1.07-1.794-1.401.748-.958 1.625 1.275.839-1.074-1.628-1.274.622-.793 1.776 1.387.843-1.069-3.036-2.377-3.884 4.969 3.048 2.385"/><path d="M72.226 17.345l.109.124c.225.261.458.554.437.796-.002.111-.065.215-.186.322-.117.102-.231.155-.348.155-.269 0-.549-.277-.762-.519l-.107-.122.857-.756zm-3.713 3.258l1.831-1.607.102.118c.236.269.243.383.049.757l-.992 1.867 1.169 1.33 1.261-2.514c.044-.091.134-.287.164-.512.54.237 1.19.129 1.66-.281 1.357-1.195.271-2.434-.521-3.337L72.2 15.243l-4.745 4.162 1.058 1.198z" id="Fill-26" fill="#FFFFFE"/><path d="M74.392 25.65c-.31.183-.697-.127-.874-.423a2.564 2.564 0 0 1-.323-1.208l-.013-.33-1.442.667.101.323c.143.487.231.782.536 1.299.514.869 1.197 1.347 1.92 1.347.337 0 .677-.1 1.015-.304 1.116-.659.941-1.708.814-2.474-.088-.542-.131-.878.094-1.011a.642.642 0 0 1 .317-.095c.289 0 .481.274.551.39.183.31.303.678.354 1.058l.039.293 1.312-.594-.035-.174a4.477 4.477 0 0 0-.549-1.364c-.688-1.156-1.816-1.53-2.87-.906-1.079.637-.924 1.663-.807 2.408.096.592.136.937-.14 1.098" id="Fill-27" fill="#FFFFFE"/><path id="Fill-28" fill="#FFFFFE" d="M75.114 31.361l5.841-2.383-.606-1.481-5.837 2.384.602 1.48"/><path id="Fill-29" fill="#FFFFFE" d="M80.977 33.434l-4.802 1.178.38 1.559 4.804-1.185.4 1.613 1.319-.325-1.176-4.776-1.326.324.401 1.612"/><path id="Fill-30" fill="#FFFFFE" d="M77.283 41.077l.089 1.599 2.477-.139 3.945 2.023-.093-1.736-2.303-1.142 2.162-1.357-.103-1.875-3.699 2.491-2.475.136"/><path id="Fill-31" fill="#FFFFFE" d="M7.818 55.516l1.307-.379-.547-1.901.964-.279.58 2.001 1.309-.382-1.022-3.546-6.066 1.749.452 1.546 2.473-.717.55 1.908"/><path d="M10.927 61.112c-.4.197-.798.302-1.15.302-.548 0-.945-.25-1.189-.741-.164-.335-.194-.66-.087-.97.147-.435.576-.852 1.175-1.145a2.572 2.572 0 0 1 1.103-.281c.561 0 .968.246 1.202.731.163.331.189.657.082.975-.151.437-.566.854-1.136 1.129zm2.509-.366c.246-.728.169-1.537-.232-2.341-.557-1.139-1.482-1.763-2.593-1.763-.534 0-1.097.142-1.669.423-.921.453-1.548 1.101-1.809 1.873-.249.721-.165 1.531.234 2.337.555 1.13 1.484 1.751 2.62 1.751.541 0 1.107-.143 1.674-.422.896-.442 1.509-1.082 1.775-1.858z" id="Fill-32" fill="#FFFFFE"/><path d="M17.783 65.632l-2.825 2.248c-.761.609-1.306.664-1.744.111-.18-.226-.255-.444-.227-.663.037-.313.285-.649.738-1.011l2.821-2.244-1.004-1.26-3.108 2.467c-.646.514-.991 1.091-1.018 1.716-.029.579.219 1.203.735 1.845.611.772 1.268 1.159 1.958 1.159.511 0 1.037-.212 1.568-.634l3.111-2.471-1.005-1.263" id="Fill-33" fill="#FFFFFE"/><path id="Fill-34" fill="#FFFFFE" d="M23.147 70.766l-2.357 2.878.897-4.077-1.393-1.135-3.998 4.881 1.212.983 2.36-2.883-.888 4.092 1.377 1.13 3.998-4.883-1.208-.986"/><path d="M28.118 77.435c-.327.654-.892 1.024-1.551 1.024a1.73 1.73 0 0 1-.778-.188l-.39-.191 1.611-3.207.388.197c.405.204.718.559.857.981.142.439.095.919-.137 1.384zm-.312-3.684l-1.624-.818-2.837 5.64 1.625.811c.782.395 1.465.584 2.09.584 1.091 0 1.948-.597 2.544-1.781.939-1.87.337-3.362-1.798-4.436z" id="Fill-35" fill="#FFFFFE"/><path id="Fill-36" fill="#FFFFFE" d="M31.287 82.074l3.775 1.005.351-1.313-2.219-.596.309-1.168 2.016.537.355-1.312-2.018-.541.257-.975 2.202.585.356-1.313-3.761-1.007-1.623 6.098"/><path d="M40.536 82.421l-.434-.022.207-3.575.428.022c.849.046 1.673.711 1.609 1.879-.071 1.216-.988 1.741-1.81 1.696zm.057-4.95l-1.822-.105-.352 6.301 1.813.104c.14.008.278.011.415.011 2.114 0 3.244-.995 3.357-2.957.052-.973-.168-1.745-.664-2.3-.571-.636-1.471-.982-2.747-1.054z" id="Fill-37" fill="#FFFFFE"/><path d="M50.55 80.463l.202-1.648.861 1.419-1.063.229zm-.993-3.468l-1.072 6.678 1.651-.356.218-1.415 2.025-.444.77 1.218 1.73-.378-3.735-5.642-1.587.339z" id="Fill-38" fill="#FFFFFE"/><path id="Fill-39" fill="#FFFFFE" d="M55.552 80.255l.546 1.516 1.518-.547-.552-1.52-1.512.551"/><path d="M61.181 78.111l-.379.206-1.708-3.146.383-.206c.252-.14.538-.216.826-.216.636 0 1.194.359 1.527.97.556 1.031.095 1.986-.649 2.392zm-2.556-4.24l-1.602.863 3.01 5.549 1.597-.868c2.097-1.132 2.655-2.644 1.659-4.483-.987-1.828-2.569-2.202-4.664-1.061z" id="Fill-40" fill="#FFFFFE"/><path id="Fill-41" fill="#FFFFFE" d="M64.491 75.86l.926 1.327 1.326-.922-.922-1.329-1.33.924"/><path id="Fill-42" fill="#FFFFFE" d="M67.011 67.783l-.281 2.476 1.386.189.114-1.032 3.011 3.054 1.149-1.134-4.431-4.493-.948.94"/><path d="M74.726 66.641c-.214.289-.617.374-.89.172-.25-.187-.332-.442-.265-.873.454-.296.784-.344 1.068-.132a.548.548 0 0 1 .23.359.66.66 0 0 1-.143.474zM72.56 64.94c-.225.142-.46.263-.667.263a.434.434 0 0 1-.265-.082c-.31-.233-.156-.615-.016-.8.105-.147.237-.218.383-.218.105 0 .223.041.335.122.189.145.273.473.23.715zm3-.46c-.527-.387-1.117-.451-1.772-.198a1.79 1.79 0 0 0-.696-1.438c-.786-.577-1.835-.252-2.604.788-.762 1.029-.693 2.072.183 2.724.435.323 1.005.396 1.551.201-.039.688.183 1.203.67 1.561.355.263.723.395 1.101.395.632 0 1.265-.389 1.791-1.091.44-.601.634-1.204.552-1.746-.072-.466-.331-.863-.776-1.196z" id="Fill-43" fill="#FFFFFE"/><path d="M78.362 60.699a.498.498 0 0 1-.484.308c-.153 0-.331-.047-.514-.143-.311-.153-.522-.346-.583-.542a.46.46 0 0 1 .035-.361c.095-.189.248-.281.475-.281.171 0 .37.053.575.156.269.136.464.324.527.517a.43.43 0 0 1-.031.346zm.058-2.388c-1.094-.546-2.132-.22-2.658.829a1.563 1.563 0 0 0-.18.868c-.392-.323-.747-.823-.44-1.441.157-.314.362-.523.614-.742l.213-.183-1.16-.832-.131.128a3.889 3.889 0 0 0-.777 1.065c-.311.628-.371 1.235-.173 1.822.338 1.02 1.379 1.717 2.185 2.117.704.355 1.305.528 1.831.528.801 0 1.402-.399 1.796-1.183.61-1.224.2-2.308-1.12-2.976z" id="Fill-44" fill="#FFFFFE"/><path d="M80.653 51.943c-1.26-.378-2.277.191-2.634 1.406a1.918 1.918 0 0 0-.074.306l-.739-.235.642-2.17-1.258-.37-1.081 3.641 3.496 1.113-.001-.306c-.002-.34.042-.66.138-.986.09-.301.413-1.046 1.089-.846.717.217.551.989.486 1.221-.128.427-.378.733-.587.987l-.201.246 1.472.486.09-.159a6.59 6.59 0 0 0 .568-1.309c.222-.738.192-1.417-.082-1.963-.26-.511-.727-.885-1.324-1.062" id="Fill-45" fill="#FFFFFE"/><g id="Group-49"><mask id="mask-2" fill="#fff"><use xlink:href="#path-1"/></mask><path d="M43.477 12.834c16.922 0 30.69 13.769 30.69 30.686 0 16.923-13.768 30.691-30.69 30.691-16.924 0-30.689-13.768-30.689-30.691 0-16.917 13.765-30.686 30.689-30.686zM11.69 43.52c0 17.533 14.257 31.794 31.787 31.794S75.266 61.053 75.266 43.52c0-17.527-14.259-31.787-31.789-31.787S11.69 25.993 11.69 43.52z" id="Fill-46" fill="#FFFFFE" mask="url(#mask-2)"/><path d="M43.477 85.866c-23.348 0-42.341-18.993-42.341-42.341 0-23.347 18.993-42.343 42.341-42.343 23.348 0 42.342 18.996 42.342 42.343 0 23.348-18.994 42.341-42.342 42.341zm0-85.821C19.503.045 0 19.548 0 43.525 0 67.493 19.503 87 43.477 87c23.975 0 43.477-19.507 43.477-43.475 0-23.977-19.502-43.48-43.477-43.48z" id="Fill-48" fill="#FFFFFE" mask="url(#mask-2)"/></g></g></svg>