<?xml version="1.0" encoding="utf-8"?> <!-- Generator: Adobe Illustrator 21.1.0, SVG Export Plug-In . SVG Version: 6.00 Build 0) --> <svg version="1.1" xmlns="http://www.w3.org/2000/svg" xmlns:xlink="http://www.w3.org/1999/xlink" x="0px" y="0px" viewBox="0 0 305 173" style="enable-background:new 0 0 305 173;" xml:space="preserve"> <style type="text/css"> .st0{fill:#003961;} .st1{font-family:'FreightSansProMedium-Regular';} .st2{font-size:28px;} .st3{fill:#2099B7;} .st4{font-family:'FreightTextProBook-Regular';} .st5{font-size:36px;} .st6{enable-background:new ;} .st7{fill:#B31B1B;} .st8{opacity:0.549;enable-background:new ;} .st9{opacity:0.2118;enable-background:new ;} </style> <g id="DATA_HUB"> <text transform="matrix(1 0 0 0.9 153.9536 118.0586)" class="st0 st1 st2">DATA HUB</text> </g> <g id="Gig_Economy"> <text transform="matrix(1 0 0 1 100.7554 95.1787)" class="st3 st4 st5">Gig Economy</text> </g> <g id="polys" class="st6"> <g id="poly_1"> <g> <path class="st7" d="M74.4,78.8l5.7,3.3v6.6l-5.7,3.3l-5.7-3.3v-6.6L74.4,78.8 M74.4,78.2l-6.2,3.6v7.1l6.2,3.6l6.2-3.6v-7.1 L74.4,78.2L74.4,78.2z"/> </g> </g> <g id="poly_2"> <g> <path class="st7" d="M88.4,78.8l5.7,3.3v6.6l-5.7,3.3l-5.7-3.3v-6.6L88.4,78.8 M88.4,78.2l-6.2,3.6v7.1l6.2,3.6l6.2-3.6v-7.1 L88.4,78.2L88.4,78.2z"/> </g> </g> <g id="poly_3"> <g> <path class="st7" d="M80.9,91l5.7,3.3v6.6l-5.7,3.3l-5.7-3.3v-6.6L80.9,91 M80.9,90.5L74.7,94v7.1l6.2,3.6l6.2-3.6V94L80.9,90.5 L80.9,90.5z"/> </g> </g> <g id="poly_4"> <g> <path class="st7" d="M67.2,91l5.7,3.3v6.6l-5.7,3.3l-5.7-3.3v-6.6L67.2,91 M67.2,90.5L61,94v7.1l6.2,3.6l6.2-3.6V94L67.2,90.5 L67.2,90.5z"/> </g> </g> <g id="poly_5"> <g> <path class="st7" d="M60.4,78.8l5.7,3.3v6.6l-5.7,3.3l-5.7-3.3v-6.6L60.4,78.8 M60.4,78.2l-6.2,3.6v7.1l6.2,3.6l6.2-3.6v-7.1 L60.4,78.2L60.4,78.2z"/> </g> </g> <g id="poly_6"> <g> <path class="st7" d="M67.9,66.6l5.7,3.3v6.6l-5.7,3.3l-5.7-3.3v-6.6L67.9,66.6 M67.9,66l-6.2,3.6v7.1l6.2,3.6l6.2-3.6v-7.1 L67.9,66L67.9,66z"/> </g> </g> <g id="poly_7"> <g> <path class="st7" d="M81.6,66.6l5.7,3.3v6.6l-5.7,3.3l-5.7-3.3v-6.6L81.6,66.6 M81.6,66l-6.2,3.6v7.1l6.2,3.6l6.2-3.6v-7.1 L81.6,66L81.6,66z"/> </g> </g> </g> <g id="polys_i" class="st8"> <g id="poly_8_i_2_"> <g> <path class="st7" d="M75.1,45l5.7,3.3v6.6l-5.7,3.3l-5.7-3.3v-6.6L75.1,45 M75.1,44.4L68.9,48v7.1l6.2,3.6l6.2-3.6V48L75.1,44.4 L75.1,44.4z"/> </g> </g> <g id="poly_9_i_2_"> <g> <path class="st7" d="M51.4,58.6l5.7,3.3v6.6l-5.7,3.3l-5.7-3.3v-6.6L51.4,58.6 M51.4,58.1l-6.2,3.6v7.1l6.2,3.6l6.2-3.6v-7.1 L51.4,58.1L51.4,58.1z"/> </g> </g> <g id="poly_10_i_2_"> <g> <path class="st7" d="M42.7,76.6l5.7,3.3v6.6l-5.7,3.3L37,86.5v-6.6L42.7,76.6 M42.7,76.1l-6.2,3.6v7.1l6.2,3.6l6.2-3.6v-7.1 L42.7,76.1L42.7,76.1z"/> </g> </g> <g id="poly_11_i_2_"> <g> <path class="st7" d="M62.9,105.4l5.7,3.3v6.6l-5.7,3.3l-5.7-3.3v-6.6L62.9,105.4 M62.9,104.9l-6.2,3.6v7.1l6.2,3.6l6.2-3.6v-7.1 L62.9,104.9L62.9,104.9z"/> </g> </g> </g> <g id="polys_ii" class="st9"> <g id="poly_12_ii"> <g> <path class="st7" d="M88.1,29.8l5.7,3.3v6.6L88.1,43l-5.7-3.3v-6.6L88.1,29.8 M88.1,29.3l-6.2,3.6V40l6.2,3.6l6.2-3.6v-7.1 L88.1,29.3L88.1,29.3z"/> </g> </g> <g id="poly_13_ii"> <g> <path class="st7" d="M24,67.3l5.7,3.3v6.6L24,80.4l-5.7-3.3v-6.6L24,67.3 M24,66.7l-6.2,3.6v7.1L24,81l6.2-3.6v-7.1L24,66.7 L24,66.7z"/> </g> </g> <g id="poly_14_ii"> <g> <path class="st7" d="M36.2,103.3l5.7,3.3v6.6l-5.7,3.3l-5.7-3.3v-6.6L36.2,103.3 M36.2,102.7l-6.2,3.6v7.1l6.2,3.6l6.2-3.6v-7.1 L36.2,102.7L36.2,102.7z"/> </g> </g> <g id="poly_15_ii"> <g> <path class="st7" d="M75.8,120.6l5.7,3.3v6.6l-5.7,3.3l-5.7-3.3v-6.6L75.8,120.6 M75.8,120l-6.2,3.6v7.1l6.2,3.6l6.2-3.6v-7.1 L75.8,120L75.8,120z"/> </g> </g> </g> <g id="polys_iii" class="st9"> <g id="poly_15_ii_copy_2_"> <g> <path class="st7" d="M83,134.2l5.7,3.3v6.6l-5.7,3.3l-5.7-3.3v-6.6L83,134.2 M83,133.7l-6.2,3.6v7.1l6.2,3.6l6.2-3.6v-7.1 L83,133.7L83,133.7z"/> </g> </g> <g id="poly_15_ii_copy_2_2_"> <g> <path class="st7" d="M68.6,134.2l5.7,3.3v6.6l-5.7,3.3l-5.7-3.3v-6.6L68.6,134.2 M68.6,133.7l-6.2,3.6v7.1l6.2,3.6l6.2-3.6v-7.1 L68.6,133.7L68.6,133.7z"/> </g> </g> <g id="poly_15_ii_copy_3_2_"> <g> <path class="st7" d="M61.4,121.3l5.7,3.3v6.6l-5.7,3.3l-5.7-3.3v-6.6L61.4,121.3 M61.4,120.7l-6.2,3.6v7.1l6.2,3.6l6.2-3.6v-7.1 L61.4,120.7L61.4,120.7z"/> </g> </g> <g id="poly_15_ii_copy_4_2_"> <g> <path class="st7" d="M54.2,134.2l5.7,3.3v6.6l-5.7,3.3l-5.7-3.3v-6.6L54.2,134.2 M54.2,133.7l-6.2,3.6v7.1l6.2,3.6l6.2-3.6v-7.1 L54.2,133.7L54.2,133.7z"/> </g> </g> <g id="poly_15_ii_copy_5_2_"> <g> <path class="st7" d="M42.7,116.2l5.7,3.3v6.6l-5.7,3.3l-5.7-3.3v-6.6L42.7,116.2 M42.7,115.7l-6.2,3.6v7.1l6.2,3.6l6.2-3.6v-7.1 L42.7,115.7L42.7,115.7z"/> </g> </g> <g id="poly_15_ii_copy_6_2_"> <g> <path class="st7" d="M28.3,116.2l5.7,3.3v6.6l-5.7,3.3l-5.7-3.3v-6.6L28.3,116.2 M28.3,115.7l-6.2,3.6v7.1l6.2,3.6l6.2-3.6v-7.1 L28.3,115.7L28.3,115.7z"/> </g> </g> <g id="poly_15_ii_copy_7_2_"> <g> <path class="st7" d="M29,91l5.7,3.3v6.6l-5.7,3.3l-5.7-3.3v-6.6L29,91 M29,90.5L22.8,94v7.1l6.2,3.6l6.2-3.6V94L29,90.5L29,90.5z "/> </g> </g> <g id="poly_15_ii_copy_8_2_"> <g> <path class="st3" d="M21.1,128.5l5.7,3.3v6.6l-5.7,3.3l-5.7-3.3v-6.6L21.1,128.5 M21.1,127.9l-6.2,3.6v7.1l6.2,3.6l6.2-3.6v-7.1 L21.1,127.9L21.1,127.9z"/> </g> </g> <g id="poly_15_ii_copy_9_2_"> <g> <path class="st7" d="M14.6,109.8l5.7,3.3v6.6l-5.7,3.3l-5.7-3.3V113L14.6,109.8 M14.6,109.2l-6.2,3.6v7.1l6.2,3.6l6.2-3.6v-7.1 L14.6,109.2L14.6,109.2z"/> </g> </g> <g id="poly_15_ii_copy_10_2_"> <g> <path class="st3" d="M16.1,80.2l5.7,3.3v6.6l-5.7,3.3l-5.7-3.3v-6.6L16.1,80.2 M16.1,79.7l-6.2,3.6v7.1l6.2,3.6l6.2-3.6v-7.1 L16.1,79.7L16.1,79.7z"/> </g> </g> <g id="poly_15_ii_copy_11_2_"> <g> <path class="st3" d="M75.8,150.8l5.7,3.3v6.6l-5.7,3.3l-5.7-3.3v-6.6L75.8,150.8 M75.8,150.2l-6.2,3.6v7.1l6.2,3.6l6.2-3.6v-7.1 L75.8,150.2L75.8,150.2z"/> </g> </g> <g id="poly_15_ii_copy_12_2_"> <g> <path class="st3" d="M44.2,47.1l5.7,3.3V57l-5.7,3.3L38.5,57v-6.6L44.2,47.1 M44.2,46.5L38,50.1v7.1l6.2,3.6l6.2-3.6v-7.1 L44.2,46.5L44.2,46.5z"/> </g> </g> <g id="poly_15_ii_copy_13_2_"> <g> <path class="st7" d="M67.9,24.1l5.7,3.3v6.6l-5.7,3.3l-5.7-3.3v-6.6L67.9,24.1 M67.9,23.5l-6.2,3.6v7.1l6.2,3.6l6.2-3.6v-7.1 L67.9,23.5L67.9,23.5z"/> </g> </g> <g id="poly_15_ii_copy_14_2_"> <g> <path class="st7" d="M54.2,20.5l5.7,3.3v6.6l-5.7,3.3l-5.7-3.3v-6.6L54.2,20.5 M54.2,19.9L48,23.5v7.1l6.2,3.6l6.2-3.6v-7.1 L54.2,19.9L54.2,19.9z"/> </g> </g> <g id="poly_15_ii_copy_15_2_"> <g> <path class="st3" d="M62.2,9l5.7,3.3v6.6l-5.7,3.3l-5.7-3.3v-6.6L62.2,9 M62.2,8.4L56,12v7.1l6.2,3.6l6.2-3.6V12L62.2,8.4 L62.2,8.4z"/> </g> </g> </g> </svg>
