<?xml version="1.0" encoding="utf-8"?>
<!-- Generator: Adobe Illustrator 21.1.0, SVG Export Plug-In . SVG Version: 6.00 Build 0)  -->
<svg version="1.1" xmlns="http://www.w3.org/2000/svg" xmlns:xlink="http://www.w3.org/1999/xlink" x="0px" y="0px"
	 viewBox="0 0 305 173" style="enable-background:new 0 0 305 173;" xml:space="preserve">
<style type="text/css">
	.st0{fill:#003961;}
	.st1{fill:#2099B7;}
	.st2{enable-background:new    ;}
	.st3{fill:#B31B1B;}
	.st4{opacity:0.549;enable-background:new    ;}
	.st5{opacity:0.2118;enable-background:new    ;}
</style>
<g id="DATA_HUB">
	<g>
		<path class="st0" d="M160.8,118.1c-0.7,0-4.6,0-4.6,0v-15.8c0,0,4.1,0,4.8,0c5.7,0,9.3,3.1,9.3,7.8
			C170.2,115,166.8,118.1,160.8,118.1z M160.8,103.8H158v12.8h2.9c4.5,0,7.5-2.1,7.5-6.4C168.4,106.2,165.6,103.8,160.8,103.8z"/>
		<path class="st0" d="M186.8,118.1H185l-1.8-4.5h-7.9l-1.8,4.5h-1.8l6.6-15.8h2.1L186.8,118.1z M179.2,103.9l-3.4,8.2h6.7
			L179.2,103.9z"/>
		<path class="st0" d="M194.1,103.8v14.2h-1.8v-14.2h-6.2v-1.5h14.1v1.5H194.1z"/>
		<path class="st0" d="M214.9,118.1h-1.8l-1.8-4.5h-7.9l-1.8,4.5h-1.8l6.6-15.8h2.1L214.9,118.1z M207.3,103.9l-3.4,8.2h6.7
			L207.3,103.9z"/>
		<path class="st0" d="M235.5,118.1v-7.2h-10.2v7.2h-1.8v-15.8h1.8v7.1h10.2v-7.1h1.8v15.8H235.5z"/>
		<path class="st0" d="M247.8,118.4c-4.2,0-6.6-2.4-6.6-6.1v-10h1.7v9.8c0,3,1.7,4.8,4.9,4.8c3.1,0,4.8-1.7,4.8-4.8
			c0,0.1,0-9.8,0-9.8h1.8c0,0,0,9.6,0,9.7C254.4,115.9,252.2,118.4,247.8,118.4z"/>
		<path class="st0" d="M270.4,113.7c0,2.6-1.9,4.4-6.3,4.4h-5.7v-15.8h5.5c4.2,0,6,1.7,6,4.1c0,1.5-1,3-3.4,3.6
			C269.1,110.4,270.4,111.8,270.4,113.7z M264,103.8h-3.8v5.7c0,0,3.5,0,3.5,0c2.6,0,4.4-1,4.4-2.9
			C268.1,104.8,266.7,103.8,264,103.8z M263.8,110.9h-3.6v5.7h4c3.1,0,4.4-1.1,4.4-2.9C268.6,111.8,266.9,110.9,263.8,110.9z"/>
	</g>
</g>
<g id="Gig_Economy">
	<g>
		<path class="st1" d="M125.2,86.5l-1.9,0.2c-0.7,0.1-0.9,0.3-0.9,0.5v5.6l2.1,0.2l0.1,0.9c-3,1-6.7,1.8-9.8,1.8
			c-7,0-12.3-4.3-12.3-11.4c0-7.5,5.7-12.1,12.6-12.1c2.1,0,4,0.4,5,0.7l2.7-0.6v7.3h-1.5l-0.9-4.7c-1.2-0.7-2.8-1.3-5.5-1.3
			c-5.2,0-9.1,4.3-9.1,10.2c0,6.2,3.3,10.5,9.2,10.5c1.7,0,3.5-0.4,4.6-0.9v-6.3c0-0.3-0.2-0.4-0.9-0.5l-2.3-0.2l-0.1-1.2h9.1
			L125.2,86.5z"/>
		<path class="st1" d="M126.9,95.2L127,94l1.5-0.1c0.6,0,0.9-0.2,0.9-0.5V83.2c0-1.7-0.2-1.9-1.2-2.2l-1.4-0.2l0.1-1l5.1-1.2v14.7
			c0,0.3,0.2,0.5,1,0.5l1.5,0.1l0.1,1.2H126.9z M130.3,75.3c-1.2,0-1.8-1-1.8-2c0-1,0.6-2,1.8-2c1.2,0,1.8,0.9,1.8,2
			C132.1,74.4,131.5,75.3,130.3,75.3z"/>
		<path class="st1" d="M147.9,80.9v0.2c0.6,0.8,1.1,1.8,1.1,3.2c0,3.1-2.8,5.7-6.3,5.7c-0.7,0-1.5-0.1-2-0.2c-0.6,0.3-1.7,1-1.7,1.9
			c0,0.9,0.9,1.7,2.3,1.7c1.2,0,3.4-0.1,4.2-0.1c3.2,0,5.3,2.1,5.3,4.6c0,3.8-3.8,6.4-8.9,6.4c-3.9,0-6.4-1.8-6.4-4.3
			c0-2.2,1.7-3.5,3.4-4.2v-0.1c-1.3-0.3-2.3-1.4-2.3-2.6c0-1.4,1.4-2.7,2.9-3.5c0-0.1,0-0.1,0-0.1c-1.8-0.8-3.1-2.6-3.1-5
			c0-3.3,2.7-5.9,6.4-5.9c1.6,0,2.9,0.4,4,0.9l4.9,0v2.1L147.9,80.9z M144.4,95.8c-1.4,0-1.5,0-4.2,0.1c-0.8,0.3-2.3,1.5-2.3,3.3
			c0,2.4,2.3,3.8,5.3,3.8c3,0,5.1-1.7,5.1-3.9C148.3,97.2,147.3,95.9,144.4,95.8z M145,80.6c-0.6-0.6-1.4-0.9-2.3-0.9
			c-2.2,0-3.6,1.8-3.6,4.3c0,1.8,0.6,3.2,1.5,4.1c0.6,0.5,1.3,0.8,2,0.8c1,0,1.8-0.3,2.3-0.8c0.9-0.8,1.3-2.1,1.3-3.7
			C146.3,82.8,145.9,81.4,145,80.6z"/>
		<path class="st1" d="M177.9,95.2h-17.3l0.1-1.2l1.9-0.2c0.7-0.1,0.9-0.2,0.9-0.5V74.6c0-0.3-0.2-0.4-0.9-0.5l-1.9-0.2l-0.1-1.2
			h17.3v6.5h-1.5l-0.8-3.6c-0.4-1.4-0.7-1.5-7.7-1.5h-1.4v9h1.4c3,0,3.4,0,3.6-0.7l0.8-2.4h1.3l-0.8,7.5h-1.2l-0.3-2.3
			c0-0.6-0.3-0.8-3.5-0.8h-1.3v9.5h1c7.6,0,8-0.2,8.5-1.5l0.9-3.5h1.8L177.9,95.2z"/>
		<path class="st1" d="M188.2,95.7c-4.2,0-7.2-3.4-7.2-8.1c0-5.3,3.9-9,8.4-9c3.2,0,5.1,1.7,5.1,3.3c0,1.4-1,1.8-1.8,1.8
			c-1.3,0-2.2-1.4-1.7-3.2v-0.1c-0.5-0.4-1.3-0.6-2.3-0.6c-2.8,0-5,2.6-5,6.5c0,4,2.4,7.1,5.7,7.1c1.7,0,3.3-0.6,4.6-2.2l0.7,0.4
			C193.4,94.2,191,95.7,188.2,95.7z"/>
		<path class="st1" d="M204.4,95.7c-4.7,0-7.8-3.6-7.8-8.5c0-4.9,3.7-8.6,8.4-8.6c4.6,0,7.8,3.5,7.8,8.2
			C212.7,91.8,209.1,95.7,204.4,95.7z M208,81.4c-0.7-0.7-1.8-1.5-3.4-1.5c-3,0-5.1,2.6-5.1,6.5c0,2.7,0.6,5.1,2,6.4
			c0.6,0.7,1.8,1.4,3.4,1.4c2.9,0,5.1-2.5,5.1-6.4C209.9,85.2,209.3,82.8,208,81.4z"/>
		<path class="st1" d="M224.9,95.2L225,94l1.5-0.1c0.8,0,0.9-0.2,0.9-0.5v-7.8c0-3.6-1.3-4.6-3.5-4.6c-1.7,0-3.3,1-4.3,1.8v10.7
			c0,0.3,0.1,0.5,1,0.5l1.7,0.1l0.1,1.2h-7.8l0.1-1.2l1.4-0.1c0.6,0,0.9-0.2,0.9-0.5V83.1c0-1.7-0.2-1.9-1.1-2.1l-1.5-0.2l0-1
			l5.2-1.2v2.6h0.2c1.8-1.5,3.7-2.6,5.8-2.6c1.1,0,2.2,0.4,3,1.2c0.9,0.9,1.3,2.3,1.3,4v9.5c0,0.3,0.1,0.5,1.1,0.5l1.4,0.1l0.1,1.2
			H224.9z"/>
		<path class="st1" d="M241.8,95.7c-4.7,0-7.8-3.6-7.8-8.5c0-4.9,3.7-8.6,8.4-8.6c4.6,0,7.8,3.5,7.8,8.2
			C250.2,91.8,246.6,95.7,241.8,95.7z M245.4,81.4c-0.7-0.7-1.8-1.5-3.4-1.5c-3,0-5.1,2.6-5.1,6.5c0,2.7,0.6,5.1,2,6.4
			c0.6,0.7,1.8,1.4,3.4,1.4c2.9,0,5.1-2.5,5.1-6.4C247.3,85.2,246.7,82.8,245.4,81.4z"/>
		<path class="st1" d="M271.9,95.2L272,94l1.4-0.1c0.8,0,0.9-0.2,0.9-0.5v-8c0-3.5-1.4-4.5-3.3-4.5c-1.5,0-3,0.9-4,1.8
			c0,0.3,0,1.9,0,2.1v8.5c0,0.3,0.1,0.5,1,0.5l1.5,0.1l0.1,1.2H262l0.1-1.2l1.4-0.1c0.8,0,0.9-0.2,0.9-0.5v-8c0-3.5-1.4-4.5-3.3-4.5
			c-1.5,0-3,0.9-4,1.8v10.8c0,0.3,0.1,0.5,1,0.5l1.7,0.1l0.1,1.2h-7.8l0.1-1.2l1.4-0.1c0.6,0,0.9-0.2,0.9-0.5V83.2
			c0-1.7-0.2-1.9-1.2-2.2l-1.4-0.2l0-1l5.2-1.2v2.6h0.1c1.8-1.5,3.6-2.6,5.5-2.6c1,0,2.2,0.4,2.9,1.1c0.5,0.5,0.8,1.1,1,1.8h0.1
			c1.8-1.7,3.8-2.8,5.7-2.8c1.1,0,2.2,0.4,3,1.2c0.9,0.9,1.3,2.2,1.3,3.9v9.6c0,0.3,0.1,0.5,1,0.5l1.4,0.1l0.1,1.2H271.9z"/>
		<path class="st1" d="M296.7,80.3l-1.2,0.3c-0.8,0.1-1,0.4-1.7,1.9l-4.4,12l-1.7,5.5c-1,3.1-2.1,4.7-4.2,4.7
			c-1.4,0-2.3-0.8-2.3-1.9c0-1,0.5-1.8,1.7-1.8c1.1,0,1.7,0.5,2.1,1.3c0.6-0.3,1-1.2,1.6-2.8l1.4-3.9v0l-6.3-13.9
			c-0.3-0.7-0.5-0.9-1.4-1l-1-0.2l-0.1-1.2h7.4l-0.1,1.2l-1.2,0.2c-0.6,0-0.9,0.3-0.6,1l4.5,10.6l3.4-9.8c0.4-1.2,0.3-1.7-0.7-1.8
			l-1.3-0.3l-0.1-1.2h6.5L296.7,80.3z"/>
	</g>
</g>
<g id="polys" class="st2">
	<g id="poly_1">
		<g>
			<path class="st3" d="M68,75.8l7.3,4.2v8.4L68,92.6l-7.3-4.2V80L68,75.8 M68,75.2l-7.8,4.5v9l7.8,4.5l7.8-4.5v-9L68,75.2L68,75.2z
				"/>
		</g>
	</g>
	<g id="poly_2">
		<g>
			<path class="st3" d="M86,75.8l7.3,4.2v8.4L86,92.6l-7.3-4.2V80L86,75.8 M86,75.2l-7.8,4.5v9l7.8,4.5l7.8-4.5v-9L86,75.2L86,75.2z
				"/>
		</g>
	</g>
	<g id="poly_3">
		<g>
			<path class="st3" d="M77.5,91l7.3,4.2v8.4l-7.3,4.2l-7.3-4.2v-8.4L77.5,91 M77.5,90.5L69.7,95v9l7.8,4.5l7.8-4.5v-9L77.5,90.5
				L77.5,90.5z"/>
		</g>
	</g>
	<g id="poly_4">
		<g>
			<path class="st3" d="M58.8,91l7.3,4.2v8.4l-7.3,4.2l-7.3-4.2v-8.4L58.8,91 M58.8,90.5L51,95v9l7.8,4.5l7.8-4.5v-9L58.8,90.5
				L58.8,90.5z"/>
		</g>
	</g>
	<g id="poly_5">
		<g>
			<path class="st3" d="M50,75.8l7.3,4.2v8.4L50,92.6l-7.3-4.2V80L50,75.8 M50,75.2l-7.8,4.5v9l7.8,4.5l7.8-4.5v-9L50,75.2L50,75.2z
				"/>
		</g>
	</g>
	<g id="poly_6">
		<g>
			<path class="st3" d="M58.5,60.6l7.3,4.2v8.4l-7.3,4.2l-7.3-4.2v-8.4L58.5,60.6 M58.5,60l-7.8,4.5v9l7.8,4.5l7.8-4.5v-9L58.5,60
				L58.5,60z"/>
		</g>
	</g>
	<g id="poly_7">
		<g>
			<path class="st3" d="M77.2,60.6l7.3,4.2v8.4l-7.3,4.2l-7.3-4.2v-8.4L77.2,60.6 M77.2,60l-7.8,4.5v9l7.8,4.5l7.8-4.5v-9L77.2,60
				L77.2,60z"/>
		</g>
	</g>
</g>
<g id="polys_i" class="st4">
	<g id="poly_8_i_3_">
		<g>
			<path class="st3" d="M67.7,37l7.3,4.2v8.4l-7.3,4.2l-7.3-4.2v-8.4L67.7,37 M67.7,36.4l-7.8,4.5v9l7.8,4.5l7.8-4.5v-9L67.7,36.4
				L67.7,36.4z"/>
		</g>
	</g>
	<g id="poly_9_i_3_">
		<g>
			<path class="st3" d="M36,49.6l7.3,4.2v8.4L36,66.5l-7.3-4.2v-8.4L36,49.6 M36,49.1l-7.8,4.5v9l7.8,4.5l7.8-4.5v-9L36,49.1
				L36,49.1z"/>
		</g>
	</g>
	<g id="poly_10_i_3_">
		<g>
			<path class="st3" d="M28.3,73.6l7.3,4.2v8.4l-7.3,4.2L21,86.3v-8.4L28.3,73.6 M28.3,73.1l-7.8,4.5v9l7.8,4.5l7.8-4.5v-9
				L28.3,73.1L28.3,73.1z"/>
		</g>
	</g>
	<g id="poly_11_i_3_">
		<g>
			<path class="st3" d="M55.5,110.4l7.3,4.2v8.4l-7.3,4.2l-7.3-4.2v-8.4L55.5,110.4 M55.5,109.9l-7.8,4.5v9l7.8,4.5l7.8-4.5v-9
				L55.5,109.9L55.5,109.9z"/>
		</g>
	</g>
</g>
<g id="polys_ii" class="st5">
	<g id="poly_12_ii">
		<g>
			<path class="st3" d="M81.7,14.8L89,19v8.4l-7.3,4.2l-7.3-4.2V19L81.7,14.8 M81.7,14.3l-7.8,4.5v9l7.8,4.5l7.8-4.5v-9L81.7,14.3
				L81.7,14.3z"/>
		</g>
	</g>
	<g id="poly_14_ii">
		<g>
			<path class="st3" d="M23.8,112.3l7.3,4.2v8.4l-7.3,4.2l-7.3-4.2v-8.4L23.8,112.3 M23.8,111.7l-7.8,4.5v9l7.8,4.5l7.8-4.5v-9
				L23.8,111.7L23.8,111.7z"/>
		</g>
	</g>
	<g id="poly_15_ii_1_">
		<g>
			<path class="st3" d="M72.4,133.6l7.3,4.2v8.4l-7.3,4.2l-7.3-4.2v-8.4L72.4,133.6 M72.4,133l-7.8,4.5v9l7.8,4.5l7.8-4.5v-9
				L72.4,133L72.4,133z"/>
		</g>
	</g>
</g>
<g id="polys_iii" class="st5">
	<g id="poly_15_ii_copy_2_1_">
		<g>
			<path class="st1" d="M63.2,149.2l7.3,4.2v8.4l-7.3,4.2l-7.3-4.2v-8.4L63.2,149.2 M63.2,148.7l-7.8,4.5v9l7.8,4.5l7.8-4.5v-9
				L63.2,148.7L63.2,148.7z"/>
		</g>
	</g>
	<g id="poly_15_ii_copy_3_3_">
		<g>
			<path class="st3" d="M55,133.3l7.3,4.2v8.4l-7.3,4.2l-7.3-4.2v-8.4L55,133.3 M55,132.7l-7.8,4.5v9l7.8,4.5l7.8-4.5v-9L55,132.7
				L55,132.7z"/>
		</g>
	</g>
	<g id="poly_15_ii_copy_5_3_">
		<g>
			<path class="st3" d="M32.3,127.2l7.3,4.2v8.4l-7.3,4.2l-7.3-4.2v-8.4L32.3,127.2 M32.3,126.7l-7.8,4.5v9l7.8,4.5l7.8-4.5v-9
				L32.3,126.7L32.3,126.7z"/>
		</g>
	</g>
	<g id="poly_15_ii_copy_6_1_">
		<g>
			<path class="st1" d="M11.9,130.2l7.3,4.2v8.4l-7.3,4.2l-7.3-4.2v-8.4L11.9,130.2 M11.9,129.7l-7.8,4.5v9l7.8,4.5l7.8-4.5v-9
				L11.9,129.7L11.9,129.7z"/>
		</g>
	</g>
	<g id="poly_15_ii_copy_7_3_">
		<g>
			<path class="st3" d="M10.6,100l7.3,4.2v8.4l-7.3,4.2l-7.3-4.2v-8.4L10.6,100 M10.6,99.5L2.8,104v9l7.8,4.5l7.8-4.5v-9L10.6,99.5
				L10.6,99.5z"/>
		</g>
	</g>
	<g id="poly_15_ii_copy_12_1_">
		<g>
			<path class="st1" d="M26.8,35.1l7.3,4.2v8.4L26.8,52l-7.3-4.2v-8.4L26.8,35.1 M26.8,34.5L19,39v9l7.8,4.5l7.8-4.5v-9L26.8,34.5
				L26.8,34.5z"/>
		</g>
	</g>
	<g id="poly_15_ii_copy_13_3_">
		<g>
			<path class="st3" d="M57.5,13.1l7.3,4.2v8.4l-7.3,4.2l-7.3-4.2v-8.4L57.5,13.1 M57.5,12.5L49.7,17v9l7.8,4.5l7.8-4.5v-9
				L57.5,12.5L57.5,12.5z"/>
		</g>
	</g>
	<g id="poly_15_ii_copy_14_3_">
		<g>
			<path class="st1" d="M42.8,2.5l7.3,4.2v8.4l-7.3,4.2l-7.3-4.2V6.7L42.8,2.5 M42.8,1.9L35,6.4v9l7.8,4.5l7.8-4.5v-9L42.8,1.9
				L42.8,1.9z"/>
		</g>
	</g>
</g>
</svg>
