<?xml version="1.0" encoding="utf-8"?>
<!-- Generator: Adobe Illustrator 21.1.0, SVG Export Plug-In . SVG Version: 6.00 Build 0)  -->
<svg version="1.1" xmlns="http://www.w3.org/2000/svg" xmlns:xlink="http://www.w3.org/1999/xlink" x="0px" y="0px"
	 viewBox="0 0 305 173" style="enable-background:new 0 0 305 173;" xml:space="preserve">
<style type="text/css">
	.st0{fill:#003961;}
	.st1{fill:#2099B7;}
	.st2{enable-background:new    ;}
	.st3{fill:#B31B1B;}
	.st4{opacity:0.549;enable-background:new    ;}
	.st5{opacity:0.2118;enable-background:new    ;}
</style>
<g id="DATA_HUB">
	<g>
		<path class="st0" d="M163.8,118.1c-0.7,0-4.6,0-4.6,0v-15.8c0,0,4.1,0,4.8,0c5.7,0,9.3,3.1,9.3,7.8
			C173.2,115,169.8,118.1,163.8,118.1z M163.8,103.8H161v12.8h2.9c4.5,0,7.5-2.1,7.5-6.4C171.4,106.2,168.6,103.8,163.8,103.8z"/>
		<path class="st0" d="M189.8,118.1H188l-1.8-4.5h-7.9l-1.8,4.5h-1.8l6.6-15.8h2.1L189.8,118.1z M182.2,103.9l-3.4,8.2h6.7
			L182.2,103.9z"/>
		<path class="st0" d="M197.1,103.8v14.2h-1.8v-14.2h-6.2v-1.5h14.1v1.5H197.1z"/>
		<path class="st0" d="M217.9,118.1h-1.8l-1.8-4.5h-7.9l-1.8,4.5h-1.8l6.6-15.8h2.1L217.9,118.1z M210.3,103.9l-3.4,8.2h6.7
			L210.3,103.9z"/>
		<path class="st0" d="M238.5,118.1v-7.2h-10.2v7.2h-1.8v-15.8h1.8v7.1h10.2v-7.1h1.8v15.8H238.5z"/>
		<path class="st0" d="M250.8,118.4c-4.2,0-6.6-2.4-6.6-6.1v-10h1.7v9.8c0,3,1.7,4.8,4.9,4.8c3.1,0,4.8-1.7,4.8-4.8
			c0,0.1,0-9.8,0-9.8h1.8c0,0,0,9.6,0,9.7C257.4,115.9,255.2,118.4,250.8,118.4z"/>
		<path class="st0" d="M273.4,113.7c0,2.6-1.9,4.4-6.3,4.4h-5.7v-15.8h5.5c4.2,0,6,1.7,6,4.1c0,1.5-1,3-3.4,3.6
			C272.1,110.4,273.4,111.8,273.4,113.7z M267,103.8h-3.8v5.7c0,0,3.5,0,3.5,0c2.6,0,4.4-1,4.4-2.9
			C271.1,104.8,269.7,103.8,267,103.8z M266.8,110.9h-3.6v5.7h4c3.1,0,4.4-1.1,4.4-2.9C271.6,111.8,269.9,110.9,266.8,110.9z"/>
	</g>
</g>
<g id="Gig_Economy">
	<g>
		<path class="st1" d="M116.3,95.1c-6.5,0-10.9-4.5-10.9-11.7c0-7.2,4.6-11.8,10.9-11.8c2.8,0,5.5,0.9,7.1,1.9l-0.8,2.1
			c-1.7-1.1-4.1-1.9-6.4-1.9c-4.9,0-8.5,3.5-8.5,9.6c0,5.9,3.4,9.6,8.6,9.6c2.1,0,4-0.6,5.4-1.4v-6.1h-6.5v-2.1h8.7v9.4
			C121.8,94.4,118.9,95.1,116.3,95.1z"/>
		<path class="st1" d="M130.4,74.4c-1,0-1.5-0.8-1.5-1.7c0-0.8,0.5-1.6,1.5-1.6s1.5,0.8,1.5,1.6C131.9,73.6,131.4,74.4,130.4,74.4z
			 M129.2,94.7V78.2l2.2-0.5v17H129.2z"/>
		<path class="st1" d="M136.1,92.1c0-1.4,1.2-2.6,2.7-3.1c-1.6-1-2.7-2.8-2.7-5c0-3.5,2.6-6.2,6.5-6.2c1.7,0,3,0.5,3.9,1l4.6-0.4
			l0.1,2.2l-3.6-0.4c0.8,0.8,1.3,2.4,1.3,3.7c0,3.5-2.7,6-6.4,6c-0.9,0-1.6-0.2-2.4-0.5c-0.9,0.4-1.8,1-1.8,2c0,1,0.8,1.7,3.7,1.7
			c0,0,2.4,0,2.1,0c4.8,0,6.8,1.6,6.8,4.3c0,3.6-4.1,6.1-8.7,6.1c-4.4,0-7.5-1.9-7.5-4.8c0-1.9,1.4-3.5,3.6-4.1
			C136.9,94.2,136.1,93.3,136.1,92.1z M136.9,98.4c0,1.9,2.1,3.4,5.6,3.4c3.4,0,6.2-1.7,6.2-3.9c0-1.9-1.7-2.6-5-2.6
			c-1.1,0-2.5,0-3.5-0.1C138.3,95.7,136.9,97,136.9,98.4z M142.6,88.1c2.5,0,4.1-1.8,4.1-4.3c0-2.4-1.4-4.3-4.2-4.3
			c-2.6,0-4.1,1.8-4.1,4.4C138.4,86.3,139.9,88.1,142.6,88.1z"/>
		<path class="st1" d="M163.2,94.7V72.2h13.6v2.1h-11.3v8.1h9.4v2.1h-9.4v8.1h11.3v2.1H163.2z"/>
		<path class="st1" d="M188.3,95.1c-5,0-8.1-3.6-8.1-8.7c0-5.1,3.4-8.7,8.1-8.7c2,0,3.7,0.5,5.1,1.4l-0.6,2
			c-1.3-0.8-2.8-1.3-4.6-1.3c-3.6,0-5.8,2.7-5.8,6.6c0,4,2.3,6.7,5.8,6.7c1.7,0,3.3-0.5,4.6-1.4l0.5,2.1
			C192,94.6,190.2,95.1,188.3,95.1z"/>
		<path class="st1" d="M204.6,95.1c-4.6,0-8-3.4-8-8.7c0-5.3,3.5-8.7,8.1-8.7s7.9,3.4,7.9,8.7C212.7,91.6,209.2,95.1,204.6,95.1z
			 M204.7,79.7c-3.5,0-5.8,2.8-5.8,6.7c0,4,2.3,6.7,5.8,6.7c3.5,0,5.8-2.8,5.8-6.7C210.5,82.4,208.2,79.7,204.7,79.7z"/>
		<path class="st1" d="M228.1,94.7V84c0-2.9-1.2-4.2-3.6-4.2c-1.8,0-3.6,1-5,2.3v12.5h-2.2V78.2l2.2-0.5v2.7
			c1.7-1.7,3.9-2.7,5.6-2.7c3.3,0,5.3,2.1,5.3,5.7v11.3H228.1z"/>
		<path class="st1" d="M242.6,95.1c-4.6,0-8-3.4-8-8.7c0-5.3,3.5-8.7,8.1-8.7s7.9,3.4,7.9,8.7C250.7,91.6,247.2,95.1,242.6,95.1z
			 M242.7,79.7c-3.5,0-5.8,2.8-5.8,6.7c0,4,2.3,6.7,5.8,6.7c3.5,0,5.8-2.8,5.8-6.7C248.5,82.4,246.2,79.7,242.7,79.7z"/>
		<path class="st1" d="M275.8,94.7V84c0-2.9-1.1-4.2-3.5-4.2c-1.8,0-3.4,0.9-4.6,2.1c0,0.2,0.1,1.1,0.1,1.5v11.2h-2.2V84
			c0-2.9-1.1-4.2-3.5-4.2c-1.7,0-3.3,0.8-4.6,1.9v12.9h-2.2V78.2l2.2-0.5c0,0,0,2.1,0,2.3c1.7-1.5,3.5-2.3,5.2-2.3
			c2.1,0,3.7,0.9,4.5,2.7c1.8-1.8,3.9-2.7,5.8-2.7c3.1,0,5.1,2.1,5.1,5.7v11.3H275.8z"/>
		<path class="st1" d="M289.6,94.5l-1.3,3.6c-1.5,4-3.1,5.2-5.3,5.2c-1.3,0-2.2-0.3-3.2-0.8l0.7-2.1c0.8,0.4,1.6,0.7,2.5,0.7
			c1.3,0,2.2-0.7,3.4-3.8l1.1-2.9L281,78.2h2.4l5.2,13.6l5.1-13.6h2.3L289.6,94.5z"/>
	</g>
</g>
<g id="polys" class="st2">
	<g id="poly_1">
		<g>
			<path class="st3" d="M66.4,76.2l7.5,4.3v8.7l-7.5,4.3l-7.5-4.3v-8.7L66.4,76.2 M66.4,75.1L57.9,80v9.8l8.5,4.9l8.5-4.9V80
				L66.4,75.1L66.4,75.1z"/>
		</g>
	</g>
	<g id="poly_2">
		<g>
			<path class="st3" d="M85.9,76.2l7.5,4.3v8.7l-7.5,4.3l-7.5-4.3v-8.7L85.9,76.2 M85.9,75.1L77.5,80v9.8l8.5,4.9l8.5-4.9V80
				L85.9,75.1L85.9,75.1z"/>
		</g>
	</g>
	<g id="poly_3">
		<g>
			<path class="st3" d="M75.7,92.8l7.5,4.3v8.7l-7.5,4.3l-7.5-4.3v-8.7L75.7,92.8 M75.7,91.7l-8.5,4.9v9.8l8.5,4.9l8.5-4.9v-9.8
				L75.7,91.7L75.7,91.7z"/>
		</g>
	</g>
	<g id="poly_4">
		<g>
			<path class="st3" d="M56.3,92.8l7.5,4.3v8.7l-7.5,4.3l-7.5-4.3v-8.7L56.3,92.8 M56.3,91.7l-8.5,4.9v9.8l8.5,4.9l8.5-4.9v-9.8
				L56.3,91.7L56.3,91.7z"/>
		</g>
	</g>
	<g id="poly_5">
		<g>
			<path class="st3" d="M46.8,76.2l7.5,4.3v8.7l-7.5,4.3l-7.5-4.3v-8.7L46.8,76.2 M46.8,75.1L38.3,80v9.8l8.5,4.9l8.5-4.9V80
				L46.8,75.1L46.8,75.1z"/>
		</g>
	</g>
	<g id="poly_6">
		<g>
			<path class="st3" d="M57,59.6l7.5,4.3v8.7L57,76.9l-7.5-4.3v-8.7L57,59.6 M57,58.4l-8.5,4.9v9.8l8.5,4.9l8.5-4.9v-9.8L57,58.4
				L57,58.4z"/>
		</g>
	</g>
	<g id="poly_7">
		<g>
			<path class="st3" d="M76.4,59.6l7.5,4.3v8.7l-7.5,4.3l-7.5-4.3v-8.7L76.4,59.6 M76.4,58.4l-8.5,4.9v9.8l8.5,4.9l8.5-4.9v-9.8
				L76.4,58.4L76.4,58.4z"/>
		</g>
	</g>
</g>
<g id="polys_i" class="st4">
	<g id="poly_8_i_2_">
		<g>
			<path class="st3" d="M66.1,33.3l8,4.6v9.2l-8,4.6l-8-4.6v-9.2L66.1,33.3 M66.1,32.7l-8.5,4.9v9.8l8.5,4.9l8.5-4.9v-9.8L66.1,32.7
				L66.1,32.7z"/>
		</g>
	</g>
	<g id="poly_9_i_2_">
		<g>
			<path class="st3" d="M31.4,47.1l8,4.6V61l-8,4.6l-8-4.6v-9.2L31.4,47.1 M31.4,46.5l-8.5,4.9v9.8l8.5,4.9l8.5-4.9v-9.8L31.4,46.5
				L31.4,46.5z"/>
		</g>
	</g>
	<g id="poly_10_i_2_">
		<g>
			<path class="st3" d="M23.1,73.3l8,4.6v9.2l-8,4.6l-8-4.6v-9.2L23.1,73.3 M23.1,72.7l-8.5,4.9v9.8l8.5,4.9l8.5-4.9v-9.8L23.1,72.7
				L23.1,72.7z"/>
		</g>
	</g>
	<g id="poly_11_i_2_">
		<g>
			<path class="st3" d="M52.7,113.4l8,4.6v9.2l-8,4.6l-8-4.6V118L52.7,113.4 M52.7,112.8l-8.5,4.9v9.8l8.5,4.9l8.5-4.9v-9.8
				L52.7,112.8L52.7,112.8z"/>
		</g>
	</g>
</g>
<g id="polys_ii" class="st5">
	<g id="poly_12_ii">
		<g>
			<path class="st3" d="M81.3,9.2l8,4.6V23l-8,4.6l-8-4.6v-9.2L81.3,9.2 M81.3,8.6l-8.5,4.9v9.8l8.5,4.9l8.5-4.9v-9.8L81.3,8.6
				L81.3,8.6z"/>
		</g>
	</g>
	<g id="poly_14_ii">
		<g>
			<path class="st3" d="M13.9,112.1l8,4.6v9.2l-8,4.6l-8-4.6v-9.2L13.9,112.1 M13.9,111.6l-8.5,4.9v9.8l8.5,4.9l8.5-4.9v-9.8
				L13.9,111.6L13.9,111.6z"/>
		</g>
	</g>
	<g id="poly_15_ii_1_">
		<g>
			<path class="st3" d="M68.9,135.3l8,4.6v9.2l-8,4.6l-8-4.6V140L68.9,135.3 M68.9,134.8l-8.5,4.9v9.8l8.5,4.9l8.5-4.9v-9.8
				L68.9,134.8L68.9,134.8z"/>
		</g>
	</g>
</g>
<g id="polys_iii" class="st5">
	<g id="poly_15_ii_copy_2_2_">
		<g>
			<path class="st1" d="M59,151.4l8,4.6v9.2l-8,4.6l-8-4.6V156L59,151.4 M59,150.8l-8.5,4.9v9.8l8.5,4.9l8.5-4.9v-9.8L59,150.8
				L59,150.8z"/>
		</g>
	</g>
	<g id="poly_15_ii_copy_3_2_">
		<g>
			<path class="st3" d="M49,135l8,4.6v9.2l-8,4.6l-8-4.6v-9.2L49,135 M49,134.5l-8.5,4.9v9.8l8.5,4.9l8.5-4.9v-9.8L49,134.5
				L49,134.5z"/>
		</g>
	</g>
	<g id="poly_15_ii_copy_5_2_">
		<g>
			<path class="st1" d="M23.1,128.5l8,4.6v9.2l-8,4.6l-8-4.6v-9.2L23.1,128.5 M23.1,127.9l-8.5,4.9v9.8l8.5,4.9l8.5-4.9v-9.8
				L23.1,127.9L23.1,127.9z"/>
		</g>
	</g>
	<g id="poly_15_ii_copy_12_3_">
		<g>
			<path class="st1" d="M21.4,31.3l8,4.6v9.2l-8,4.6l-8-4.6v-9.2L21.4,31.3 M21.4,30.7l-8.5,4.9v9.8l8.5,4.9l8.5-4.9v-9.8L21.4,30.7
				L21.4,30.7z"/>
		</g>
	</g>
	<g id="poly_15_ii_copy_13_2_">
		<g>
			<path class="st3" d="M51.7,3.7l8,4.6v9.2l-8,4.6l-8-4.6V8.3L51.7,3.7 M51.7,3.1L43.2,8v9.8l8.5,4.9l8.5-4.9V8L51.7,3.1L51.7,3.1z
				"/>
		</g>
	</g>
</g>
</svg>
