<svg xmlns="http://www.w3.org/2000/svg" width="145" height="145" viewBox="0 0 145 145"><style>.st0{fill:#fff}.st1{stroke:#fff}</style><path class="st0" d="M17.3 57.8h-.5c-.3-1-.5-2-1.6-2.5-1-.5-2.4-.4-3.5-.4-1.9 0-1.8-.2-1.9 1.3v5.3c3.3.1 3.7-1.2 3.9-2.9h.5c0 1.1 0 2.2-.1 3.2 0 1 .1 2 .1 3h-.5c-.3-2.5-1.6-2.5-3.9-2.5v3c0 .7 0 2.5.2 3.1.4 1 1.5.8 2.4.8v.5c-1.2 0-2.5-.1-3.7-.1-1.2 0-2.4.1-3.7.1v-.5c.8 0 1.7 0 2-.8.2-.6.2-2.4.2-3.2v-6.7c0-.8 0-2.5-.2-3.2-.3-.8-1.3-.8-2-.8V54c1.5 0 2.9.1 4.3.1 2.5 0 5.1-.1 7.6-.1l.4 3.8zm15.6 5.7c0 4.3-1.7 6.6-6.2 6.6-4.3 0-6.3-1.5-6.3-5.8v-5.7c0-.8 0-2.5-.2-3.2-.3-.8-1.3-.8-2-.8v-.5c1.1 0 2.3.1 3.4.1 1.2 0 2.4-.1 3.6-.1v.5c-.8 0-1.8 0-2 .8-.2.6-.2 2.4-.2 3.2v5.9c0 3 1.2 4.8 4.4 4.8 3.3 0 4.9-1.7 4.9-4.9v-5.2c0-.8 0-2.7-.2-3.4-.3-1-1.3-1.1-2.2-1.1v-.5c.9 0 1.8.1 2.8.1.9 0 1.8-.1 2.7-.1v.5c-.8 0-1.6 0-1.9.9-.3.9-.3 2.7-.3 3.6v4.3zm18.3-5.7h-.6c-.1-2.3-1-3-3.3-3-.9 0-2.3-.1-2.3.6v11.3c0 1.8.3 2.4 2.6 2.5v.5c-1.3 0-2.6-.1-3.9-.1-1.3 0-2.5.1-3.8.1v-.5c2.3-.1 2.6-.8 2.6-2.5V55.5c0-.7-1-.6-2-.6-2.4 0-3.5.1-3.6 3h-.5v-3.7H51l.2 3.6zm16 5.7c0 4.3-1.7 6.6-6.2 6.6-4.3 0-6.3-1.5-6.3-5.8v-5.7c0-.8 0-2.5-.2-3.2-.3-.8-1.3-.8-2-.8v-.5c1.1 0 2.3.1 3.4.1 1.2 0 2.4-.1 3.6-.1v.5c-.8 0-1.8 0-2 .8-.2.6-.2 2.4-.2 3.2v5.9c0 3 1.2 4.8 4.4 4.8 3.3 0 4.9-1.7 4.9-4.9v-5.2c0-.8 0-2.7-.2-3.4-.3-1-1.3-1.1-2.2-1.1v-.5c.9 0 1.8.1 2.8.1.9 0 1.8-.1 2.7-.1v.5c-.8 0-1.6 0-1.9.9-.3.9-.3 2.7-.3 3.6v4.3zm17 4.4c.8.9 1.1 1.2 2.3 1.4v.5c-.7 0-1.4-.1-2.1-.1-.6 0-1.2.1-1.8.1l-1.1-1.4-4-4.9c-.8-.9-.7-1-2-1v2.8c0 .8 0 2.5.2 3.2.3.8 1.3.8 2 .8v.5c-1.1 0-2.2-.1-3.4-.1-1.2 0-2.4.1-3.6.1v-.5c.8 0 1.8 0 2-.8.2-.6.2-2.4.2-3.2v-6.7c0-.8 0-2.5-.2-3.2-.3-.8-1.3-.8-2-.8v-.5c1.4 0 2.7.1 4.1.1 1 0 2-.1 3-.1 2.7 0 5.4.6 5.4 3.9 0 2.6-2 3.9-4.3 4.1l5.3 5.8zm-8.6-6c3 0 5.1-.1 5.1-3.5 0-2.1-1.2-3.6-3.3-3.6-.3 0-1.3-.1-1.5 0-.3.1-.3.6-.3.9v6.2zm13.3-3.2c0-.8 0-2.5-.2-3.2-.3-.8-1.3-.8-2-.8v-.6h11.8v3.6H98c-.5-2.8-1.7-2.9-4.2-2.9H92c-.7 0-.6-.1-.6 1v5.6c3.3.1 3.7-1.2 3.9-2.9h.5c0 1.1 0 2.2-.1 3.2 0 1 .1 2 .1 2.9h-.5c-.3-2.5-1.6-2.6-3.9-2.6v3.9c0 .7 0 1.8.4 2.4.6.8 2.1.9 3 .9 2.5 0 4.1-.4 4.4-3.2h.5l-.2 3.8H86.6v-.5c.8 0 1.7 0 2-.8.2-.6.2-2.4.2-3.2v-6.6zM108 62c0-4.7 4.1-8.2 8.7-8.2 4.5 0 8.5 3.3 8.5 8 0 4.9-3.8 8.3-8.6 8.3-4.6 0-8.6-3.3-8.6-8.1zm3 0c0 3.7 1.5 7.4 5.8 7.4 4.2 0 5.5-4 5.5-7.5 0-3.6-1.5-7.5-5.7-7.5-4.1.1-5.6 4.1-5.6 7.6zm28.1-4.2h-.5c-.3-1-.5-2-1.6-2.5-1-.5-2.4-.4-3.5-.4-1.9 0-1.8-.2-1.9 1.3v5.3c3.3.1 3.7-1.2 3.9-2.9h.5c0 1.1 0 2.2-.1 3.2 0 1 .1 2 .1 3h-.5c-.3-2.5-1.6-2.5-3.9-2.5v3c0 .7 0 2.5.2 3.1.4 1 1.5.8 2.4.8v.5c-1.2 0-2.5-.1-3.7-.1-1.2 0-2.4.1-3.7.1v-.5c.8 0 1.7 0 2-.8.2-.6.2-2.4.2-3.2v-6.7c0-.8 0-2.5-.2-3.2-.3-.8-1.3-.8-2-.8V54c1.5 0 2.9.1 4.3.1 2.5 0 5.1-.1 7.6-.1l.4 3.8zM25.9 85.7l-3.5 11.8c-1.2 3.5-2.4 6.9-3.6 10.4h-1.5L9.8 84.5c-.3-1-1-3.3-1.6-4-.7-1-1.9-1-3.1-1.1v-1c2.1 0 4.2.1 6.2.2 2.1 0 4.3-.1 6.4-.2v1c-1.4.1-3.9.1-3.9 2.1 0 1 1 4.2 1.3 5.3l4.6 14.9 6.9-23.3H28l7.2 23 3-9.5c.6-1.9 2.3-7.9 2.3-9.6 0-2.7-1.6-2.7-3.7-2.9v-1c1.6 0 3.1.1 4.7.2 1.5 0 3-.1 4.5-.2v1c-3.2-.1-3.8 3.3-4.5 5.7l-7.2 22.8h-1.5l-6.9-22.2zm20.8 7.1c0-8.6 7.5-15 15.9-15 8.3 0 15.6 6.1 15.6 14.7 0 8.9-7 15.1-15.7 15.1-8.6 0-15.8-6.1-15.8-14.8zm5.4 0c0 6.8 2.7 13.6 10.6 13.6 7.7 0 10.1-7.2 10.1-13.7C72.7 86.2 70 79 62.4 79c-7.5 0-10.3 7.4-10.3 13.8zm53.5 10.7c1.4 1.6 2 2.2 4.3 2.6v1c-1.3 0-2.6-.1-3.9-.2-1.1 0-2.2.1-3.3.2l-2-2.5-7.2-8.9c-1.4-1.6-1.3-1.9-3.6-1.9v5.1c0 1.4 0 4.6.4 5.8.5 1.5 2.3 1.5 3.7 1.5v1c-2 0-4-.1-6.1-.2-2.2 0-4.3.1-6.5.2v-1c1.4 0 3.2 0 3.7-1.5.4-1.2.4-4.4.4-5.8V86.6c0-1.4 0-4.6-.4-5.8-.5-1.5-2.3-1.5-3.7-1.5v-1c2.5 0 5 .1 7.5.2 1.8 0 3.7-.1 5.5-.2 4.9 0 9.9 1.1 9.9 7.2 0 4.7-3.6 7.1-7.9 7.5l9.2 10.5zm-15.7-11c5.4 0 9.4-.1 9.4-6.4 0-3.8-2.2-6.5-6.1-6.5-.5 0-2.4-.1-2.8 0-.6.3-.5 1.1-.5 1.6v11.3zm28.7 3.8v5.1c0 4.1.1 4.3 4.3 4.7v1c-2.1 0-4.2-.1-6.3-.2-2.2 0-4.4.1-6.6.2v-1c1.4 0 3.2 0 3.7-1.5.4-1.2.4-4.4.4-5.8V86.6c0-1.4 0-4.6-.4-5.8-.6-1.5-2.3-1.5-3.7-1.5v-1c2.1 0 4.1.1 6.2.2 2.3 0 4.5-.1 6.7-.2v1c-4.2.3-4.3.6-4.3 4.7v10.6c2.1-2.2 10.5-11 10.5-13.5 0-1.8-2-1.6-3.3-1.7v-1c1.7 0 3.4.1 5.2.2 1.5 0 3-.1 4.5-.2v1c-2.4 0-2.9.6-4.4 2.4l-6.9 8.6 6 6.9c.5.7 5.1 6.6 7.1 8.1.9.7 1.5.6 2.6.7v1c-2.3 0-4.6-.1-6.9-.2-2.2 0-4.4.1-6.6.2v-1c.8 0 3.6.1 3.6-1.3 0-.9-2.7-4.1-3.4-4.9l-5.3-6.4-2.7 2.8zM85.2 22.7c.1-.1.3-.4.3-.5.1-.2 0-.6-.3-.6 0 0 .7-1.2-.2-1.3.2-.3.2-.4.2-.7 0-.2-.1-.3-.3-.3 0 0 .1-1.4-.4-1.1 0 0 .3-1.3-.4-1.1 0 0 0-.7-.2-.9-.2-.2-.4-.1-.4 0 0 0-.1-1.4-.7-1 0 0-.1-1.3-.7-.7 0 0-.1-.3-.1-.5 0-.1-.1-.3-.2-.4-.1-.2-.4-.2-.5-.1 0 0 0-.6-.2-.8-.1-.1-.2-.3-.5-.1 0 0 0-1.1-.7-.8 0 0-.1-1-.6-.7 0-.4-.4-.9-.7-.6 0 0-.1-.9-.6-.5 0 0-.1-.8-.5-.5 0 0-.1-.4-.2-.5-.2-.1-.4.1-.4.1 0-.3-.3-1-.7-.5-.1-.3-.5-.9-.8-.4-.1-.4-.4-.8-.8-.6 0 0-.2-.9-.6-.6 0 0-.1-.8-.5-.5 0 0 0-.4-.3-.5-.1 0-.2 0-.2.1 0 0-.1-.6-.4-.6l-.1.1V6s-.1-.1-.2.1c-.2.2-.3.6-.3.6-.2-.2-.4.5-.5.7 0 0-.1-.1-.2-.1-.3.1-.3.4-.4.6-.3-.4-.7.5-.7.5 0-.1-.2-.1-.2-.1-.2.1-.4.6-.4.6-.1-.2-.2-.1-.3-.1-.2.1-.4.6-.4.6 0-.1-.2-.3-.4-.2-.3 0-.5.6-.5.6-.4-.7-.7.2-.9.5-.4-.7-.9.4-.9.4-.1-.1-.2-.2-.3-.1-.4.2-.4.7-.4.7-.2-.2-.5.1-.6.3-.1.2-.2.5-.3.6-.1-.2-.2-.1-.3-.1-.3.1-.3.6-.3.6-.5-.3-.7.7-.7.7-.5-.4-.6 1-.6 1-.1-.1-.4-.1-.5.3-.1.2-.1.6-.1.6-.6-.3-.5.8-.5.8-.2-.2-.4.1-.4.3-.1.3 0 .5 0 .5-.6-.1-.5.9-.5.9-.1-.2-.3-.1-.4 0-.1.2 0 .8 0 .8-.2-.2-.3 0-.4.2v.7c-.3-.2-.3 0-.4.1-.1.2.1.8.1.8-.2-.1-.4.1-.4.3-.1.4.3 1 .3 1-.6.1 0 1.1.1 1.5 0 0-.1 0-.2.3-.1.6.5 1.6 1.1 2.1-.5.8 1.3 1.6 1.8 1.7 0 0 0 .5.4.9.3.2 1.4.7 1.9.7 0 0 0 .5.3.7.4.2 1.2.4 1.8.3.7 1.1 2.7.8 4.1.4 1.4-.4 1.8.1 1.8.2.8 1.9 1.6 6.5.6 10.6-.1.3-.1.4-.2.4-.3 0-.6.4-.5.8 0 .3.2.9.5 1 .1 0 .2 0 .3-.2 2.2-6.7.1-11.6.2-12.1 0-1.8 2.1-.7 3-.6 1.8.3 3.1.1 3.7-.9 0 0 2-.1 2.1-1.4 0 0 .6-.1.8-.4.2-.2.5-.4.4-.8 0 0 .4-.2.6-.5.2-.3.6-.8.1-.9 0 0 1.2-1.3.5-1.5 0 0 .2-.3.3-.5.4-.2.5-.8.2-.8zM13.7 35h-.3c-.1-1.2-.5-1.5-1.6-1.5-.4 0-1.2-.1-1.2.3v5.8c0 .9.2 1.3 1.3 1.3v.3H8V41c1.2 0 1.3-.4 1.3-1.3v-5.8c0-.4-.5-.3-1-.3-1.2 0-1.7.1-1.8 1.5h-.1v-1.9h7.3V35zm2.6 3.9c0 .4 0 1.3.1 1.6.2.4.6.4 1 .4v.3h-3.5V41c.4 0 .9 0 1-.4.1-.3.1-1.2.1-1.6v-3.5c0-.4 0-1.3-.1-1.6-.2-.4-.6-.4-1-.4v-.3h3.5v.3c-.4 0-.9 0-1 .4-.1.3-.1 1.2-.1 1.6v1.4h4.2v-1.4c0-.4 0-1.3-.1-1.6-.2-.4-.6-.4-1-.4v-.3h3.5v.3c-.4 0-.9 0-1 .4-.1.3-.1 1.2-.1 1.6V39c0 .4 0 1.3.1 1.6.2.4.6.4 1 .4v.3h-3.5V41c.4 0 .9 0 1-.4.1-.3.1-1.2.1-1.6v-1.6h-4.2v1.5zm8.5-3.4c0-.4 0-1.3-.1-1.6-.2-.4-.6-.4-1-.4v-.3h5.9v1.9h-.3c-.2-1.4-.8-1.5-2.1-1.5h-.9c-.4 0-.3 0-.3.5V37c1.6.1 1.9-.6 1.9-1.5h.3v3.2h-.3c-.2-1.3-.8-1.4-1.9-1.4v2c0 .4 0 .9.2 1.2.3.4 1 .5 1.5.4 1.2 0 2-.2 2.2-1.6h.3l-.1 2h-6.5V41c.4 0 .9 0 1-.4.1-.3.1-1.2.1-1.6v-3.5zm11.1 2.4l1.3-3.5 1.3 3.5h-2.6zm-.2.4h2.9l.5 1.3c.1.3.2.7.2 1 0 .5-.6.5-.9.5v.3h3.4V41c-.4 0-.8-.1-1-.5-.2-.3-.5-1-.6-1.4l-2.4-6.3h-.4l-1.8 4.8c-.3.8-.7 1.6-1 2.4-.2.6-.5.8-1.1.9v.3H36V41c-.4 0-1 0-1-.5s.4-1.4.6-1.9l.1-.3zm6.4.5h.3c.2 1.2.9 2.3 2.2 2.3.9 0 1.7-.5 1.7-1.5 0-1.1-.9-1.6-1.8-1.9-1.1-.4-2.2-1-2.2-2.4s1.1-2.2 2.4-2.2c.7 0 1.3.2 1.8.6l.3-.5h.1l.1 2.1h-.3c-.3-1-.8-1.9-2-1.9-.8 0-1.4.5-1.4 1.3 0 1 .8 1.3 1.6 1.6 1.2.5 2.6 1.2 2.6 2.8s-1.4 2.4-2.8 2.4c-.8 0-1.4-.2-2.1-.7l-.3.5h-.1v-2.5zm8.3-4.8c0-.6 0-.6.8-.6 1.2 0 1.7.6 1.7 1.8 0 1.3-.6 1.9-1.8 1.9h-.7V34zm0 3.4h.8c1.4 0 3.1-.4 3.1-2.2 0-1.6-1.4-2.1-2.7-2.1h-3.5v.3c.4 0 .9 0 1 .4.1.3.1 1.2.1 1.6v3.5c0 .4 0 1.3-.1 1.6-.1.5-.6.5-1 .5v.3h3.6V41c-.4 0-1 .1-1.1-.4-.1-.3-.1-1.2-.1-1.6v-1.6zm5.7-1.9c0-.4 0-1.3-.1-1.6-.2-.4-.6-.4-1-.4v-.3h5.9v1.9h-.3c-.2-1.4-.8-1.5-2.1-1.5h-.9c-.4 0-.3 0-.3.5V37c1.6.1 1.9-.6 1.9-1.5h.3v3.2h-.3c-.2-1.3-.8-1.4-1.9-1.4v2c0 .4 0 .9.2 1.2.3.4 1 .5 1.5.4 1.2 0 2-.2 2.2-1.6h.3l-.1 2H55V41c.4 0 .9 0 1-.4.1-.3.1-1.2.1-1.6v-3.5z"/><path class="st0" d="M63.2 34.1c-.4-.5-.7-.7-1.3-.7v-.3h2l5 6.3V36c0-.5 0-1.4-.1-1.9-.1-.7-.5-.6-1.1-.7v-.3h2.6v.3c-.4 0-.7 0-.9.5-.1.4-.1 1.7-.1 2.2v5.3H69c-.3-.3-.5-.7-.8-1l-4.6-5.8v4.1c0 .5 0 1.4.2 1.8.2.5.6.5 1 .5v.3h-2.7V41c.5 0 .9-.1 1-.6.1-.4.1-1.2.1-1.7v-4.6zm15.2 1.3c0-.4 0-1.3-.1-1.6-.2-.4-.6-.4-1-.4v-.3h3.5v.3c-.4 0-.9 0-1 .4-.1.3-.1 1.2-.1 1.6v3.5c0 .4 0 1.3.1 1.6.2.4.6.4 1 .4v.3h-3.5V41c.4 0 .9 0 1-.4.1-.3.1-1.2.1-1.6v-3.6zm4.3-1.3c-.4-.5-.7-.7-1.3-.7v-.3h2l5 6.3V36c0-.5 0-1.4-.1-1.9-.1-.7-.5-.6-1.1-.7v-.3h2.6v.3c-.4 0-.7 0-.9.5-.1.4-.1 1.7-.1 2.2v5.3h-.4c-.3-.3-.5-.7-.8-1L83 34.6v4.1c0 .5 0 1.4.2 1.8.2.5.6.5 1 .5v.3h-2.7V41c.5 0 .9-.1 1-.6.1-.4.1-1.2.1-1.7v-4.6zm7.6 4.7h.3c.2 1.2.9 2.3 2.2 2.3.9 0 1.7-.5 1.7-1.5 0-1.1-.9-1.6-1.8-1.9-1.1-.4-2.2-1-2.2-2.4s1.1-2.2 2.4-2.2c.7 0 1.3.2 1.8.6l.3-.5h.1l.1 2.1h-.3c-.3-1-.8-1.9-2-1.9-.8 0-1.4.5-1.4 1.3 0 1 .8 1.3 1.6 1.6 1.2.5 2.6 1.2 2.6 2.8s-1.4 2.4-2.8 2.4c-.8 0-1.4-.2-2.1-.7l-.3.5h-.1v-2.5zm13.3-3.8h-.3c-.1-1.2-.5-1.5-1.6-1.5-.4 0-1.2-.1-1.2.3v5.8c0 .9.2 1.3 1.3 1.3v.3h-3.9V41c1.2 0 1.3-.4 1.3-1.3v-5.8c0-.4-.5-.3-1-.3-1.2 0-1.7.1-1.8 1.5h-.3v-1.9h7.3l.2 1.8zm1.7.4c0-.4 0-1.3-.1-1.6-.2-.4-.6-.4-1-.4v-.3h3.5v.3c-.4 0-.9 0-1 .4-.1.3-.1 1.2-.1 1.6v3.5c0 .4 0 1.3.1 1.6.2.4.6.4 1 .4v.3h-3.5V41c.4 0 .9 0 1-.4.1-.3.1-1.2.1-1.6v-3.6zm10.4-.4h-.3c-.1-1.2-.5-1.5-1.6-1.5-.4 0-1.2-.1-1.2.3v5.8c0 .9.2 1.3 1.3 1.3v.3H110V41c1.2 0 1.3-.4 1.3-1.3v-5.8c0-.4-.5-.3-1-.3-1.2 0-1.7.1-1.8 1.5h-.3v-1.9h7.3l.2 1.8zm7.9 3c0 2.2-.8 3.4-3.1 3.4-2.1 0-3.2-.8-3.2-3v-2.9c0-.4 0-1.3-.1-1.6-.2-.4-.6-.4-1-.4v-.3h3.5v.3c-.4 0-.9 0-1 .4-.1.3-.1 1.2-.1 1.6v3c0 1.6.6 2.5 2.2 2.5s2.5-.9 2.5-2.5v-2.7c0-.4 0-1.4-.1-1.8-.2-.5-.6-.6-1.1-.6v-.3h2.7v.3c-.4 0-.8 0-1 .4-.2.4-.2 1.4-.2 1.9V38zm9.2-3h-.3c-.1-1.2-.5-1.5-1.6-1.5-.4 0-1.2-.1-1.2.3v5.8c0 .9.2 1.3 1.3 1.3v.3h-3.9V41c1.2 0 1.3-.4 1.3-1.3v-5.8c0-.4-.5-.3-1-.3-1.2 0-1.7.1-1.8 1.5h-.3v-1.9h7.3l.2 1.8zm1.6.5c0-.4 0-1.3-.1-1.6-.2-.4-.6-.4-1-.4v-.3h5.9v1.9h-.3c-.2-1.4-.8-1.5-2.1-1.5h-.8c-.4 0-.3 0-.3.5V37c1.6.1 1.9-.6 1.9-1.5h.3v3.2h-.3c-.2-1.3-.8-1.4-1.9-1.4v2c0 .4 0 .9.2 1.2.3.4 1 .5 1.5.4 1.2 0 2-.2 2.2-1.6h.3l-.1 2h-6.5V41c.4 0 .9 0 1-.4.1-.3.1-1.2.1-1.6v-3.5z"/><path class="st1" d="M5.8 47h134.1"/><path class="st0" d="M8.3 124.4c0-.6 0-2.1-.2-2.7-.3-.7-1.1-.7-1.7-.7v-.5c1 0 1.9.1 2.9.1s2-.1 3-.1v.5c-.6 0-1.5 0-1.7.7-.2.5-.2 2-.2 2.7v5.7c0 .6 0 2.1.2 2.7.3.7 1.1.7 1.7.7v.5c-.9 0-1.9-.1-2.9-.1s-2 .1-3 .1v-.5c.6 0 1.5 0 1.7-.7.2-.5.2-2 .2-2.7v-5.7zm10.2-2.1c-.6-.9-1.1-1.2-2.2-1.2v-.5c.6 0 1.3.1 1.9.1.5 0 1.1-.1 1.6-.1l8.5 10.3v-5.6c0-.9 0-2.3-.2-3.1-.2-1.1-.8-1-1.8-1.2v-.5c.7 0 1.5.1 2.2.1.7 0 1.4-.1 2.1-.1v.5c-.7.1-1.3 0-1.5.9-.2.6-.2 2.7-.2 3.5v8.6h-.6c-.4-.5-.9-1.1-1.3-1.7l-7.9-9.5v6.7c0 .7 0 2.2.3 2.9.3.8 1 .7 1.7.8v.5c-.8 0-1.5-.1-2.3-.1-.7 0-1.5.1-2.2.1v-.5c.8-.1 1.5-.1 1.7-1 .2-.7.2-2 .2-2.8v-7.1zm18.2 2.1c0-.6 0-2.1-.2-2.7-.3-.7-1.1-.7-1.7-.7v-.5c1 0 1.9.1 2.9.1s2-.1 3-.1v.5c-.6 0-1.5 0-1.7.7-.2.5-.2 2-.2 2.7v5.7c0 .6 0 2.1.2 2.7.3.7 1.1.7 1.7.7v.5c-.9 0-1.9-.1-2.9-.1s-2 .1-3 .1v-.5c.6 0 1.5 0 1.7-.7.2-.5.2-2 .2-2.7v-5.7zm20.6-.7h-.5c-.1-2-.9-2.5-2.8-2.5-.7 0-1.9-.1-1.9.5v9.5c0 1.5.3 2 2.2 2.1v.5c-1.1 0-2.2-.1-3.3-.1-1.1 0-2.1.1-3.2.1v-.5c1.9-.1 2.2-.6 2.2-2.1v-9.5c0-.6-.9-.5-1.7-.5-2 0-2.9.1-3 2.5h-.5v-3.1h12.3l.2 3.1zm5.9.7c0-.6 0-2.1-.2-2.7-.3-.7-1.1-.7-1.7-.7v-.5c1 0 1.9.1 2.9.1s2-.1 3-.1v.5c-.6 0-1.5 0-1.7.7-.2.5-.2 2-.2 2.7v5.7c0 .6 0 2.1.2 2.7.3.7 1.1.7 1.7.7v.5c-.9 0-1.9-.1-2.9-.1s-2 .1-3 .1v-.5c.6 0 1.5 0 1.7-.7.2-.5.2-2 .2-2.7v-5.7zm10.9 5.1c-.3.8-1 2.2-1 3 0 .9 1 .8 1.6.9v.5c-.7 0-1.5-.1-2.2-.1-.7 0-1.4.1-2.1.1v-.5c1.1-.1 1.5-.4 1.9-1.4.6-1.3 1.1-2.5 1.7-3.8l3.1-7.9h.7l4 10.2c.2.5.7 1.7 1 2.2.4.6 1 .7 1.7.7v.5c-.9 0-1.9-.1-2.8-.1-1 0-1.9.1-2.9.1v-.5c.6 0 1.5 0 1.5-.8 0-.5-.2-1.1-.4-1.6l-.8-2.1h-5v.6zm4.9-1.1l-2.2-5.7-2.2 5.7H79zm19.9-4.7h-.5c-.1-2-.9-2.5-2.8-2.5-.7 0-1.9-.1-1.9.5v9.5c0 1.5.3 2 2.2 2.1v.5c-1.1 0-2.2-.1-3.3-.1-1.1 0-2.1.1-3.2.1v-.5c1.9-.1 2.2-.6 2.2-2.1v-9.5c0-.6-.9-.5-1.7-.5-2 0-2.9.1-3 2.5h-.5v-3.1h12.3l.2 3.1zm5.9.7c0-.6 0-2.1-.2-2.7-.3-.7-1.1-.7-1.7-.7v-.5c1 0 1.9.1 2.9.1s2-.1 3-.1v.5c-.6 0-1.5 0-1.7.7-.2.5-.2 2-.2 2.7v5.7c0 .6 0 2.1.2 2.7.3.7 1.1.7 1.7.7v.5c-.9 0-1.9-.1-2.9-.1s-2 .1-3 .1v-.5c.6 0 1.5 0 1.7-.7.2-.5.2-2 .2-2.7v-5.7zm9.6-.9c-.5-1.3-.8-2.4-2.4-2.5v-.5c.9 0 1.9.1 2.8.1 1 0 2-.1 2.9-.1v.5c-.6 0-1.6 0-1.6.8 0 .7 1.2 3.8 1.5 4.6l2 5.1 1.9-4.7c.4-1 1.5-4 1.5-4.9 0-1-.8-1-1.6-1v-.5c.8 0 1.5.1 2.3.1.7 0 1.4-.1 2.1-.1v.5c-1.7 0-2.1 1.7-2.6 3l-4.1 10.1h-.6l-4.1-10.5zm16.5 1c0-.6 0-2.1-.2-2.7-.3-.7-1.1-.7-1.7-.7v-.5h10v3h-.5c-.4-2.3-1.4-2.5-3.5-2.5h-1.4c-.6 0-.5-.1-.5.8v4.8c2.7.1 3.1-1 3.3-2.5h.5c0 .9 0 1.8-.1 2.7 0 .8.1 1.7.1 2.5h-.5c-.3-2.1-1.3-2.2-3.3-2.2v3.3c0 .6 0 1.5.4 2 .5.7 1.8.7 2.6.7 2.1 0 3.4-.3 3.7-2.7h.5l-.2 3.2H129v-.5c.6 0 1.5 0 1.7-.7.2-.5.2-2 .2-2.7v-5.3z"/><path class="st1" d="M6.4 114.3h133.5"/></svg>