<?xml version="1.0" encoding="utf-8"?>
<!-- Generator: Adobe Illustrator 21.1.0, SVG Export Plug-In . SVG Version: 6.00 Build 0)  -->
<svg version="1.1" xmlns="http://www.w3.org/2000/svg" xmlns:xlink="http://www.w3.org/1999/xlink" x="0px" y="0px" width="145px" height="145px"
	 viewBox="0 0 145 145" style="enable-background:new 0 0 145 145;" xml:space="preserve">
<style type="text/css">
	.st0{fill:#FFFFFF;}
	.st1{stroke:#FFFFFF;}
</style>
<path class="st0" d="M17.3,57.8h-0.5c-0.3-1-0.5-2-1.6-2.5c-1-0.5-2.4-0.4-3.5-0.4c-1.9,0-1.8-0.2-1.9,1.3v5.3
	c3.3,0.1,3.7-1.2,3.9-2.9h0.5c0,1.1,0,2.2-0.1,3.2c0,1,0.1,2,0.1,3h-0.5c-0.3-2.5-1.6-2.5-3.9-2.5v3c0,0.7,0,2.5,0.2,3.1
	c0.4,1,1.5,0.8,2.4,0.8v0.5c-1.2,0-2.5-0.1-3.7-0.1c-1.2,0-2.4,0.1-3.7,0.1v-0.5c0.8,0,1.7,0,2-0.8c0.2-0.6,0.2-2.4,0.2-3.2v-6.7
	c0-0.8,0-2.5-0.2-3.2c-0.3-0.8-1.3-0.8-2-0.8v-0.5c1.5,0,2.9,0.1,4.3,0.1c2.5,0,5.1-0.1,7.6-0.1L17.3,57.8z"/>
<path class="st0" d="M32.9,63.5c0,4.3-1.7,6.6-6.2,6.6c-4.3,0-6.3-1.5-6.3-5.8v-5.7c0-0.8,0-2.5-0.2-3.2c-0.3-0.8-1.3-0.8-2-0.8
	v-0.5c1.1,0,2.3,0.1,3.4,0.1c1.2,0,2.4-0.1,3.6-0.1v0.5c-0.8,0-1.8,0-2,0.8c-0.2,0.6-0.2,2.4-0.2,3.2v5.9c0,3,1.2,4.8,4.4,4.8
	c3.3,0,4.9-1.7,4.9-4.9v-5.2c0-0.8,0-2.7-0.2-3.4c-0.3-1-1.3-1.1-2.2-1.1v-0.5c0.9,0,1.8,0.1,2.8,0.1c0.9,0,1.8-0.1,2.7-0.1v0.5
	c-0.8,0-1.6,0-1.9,0.9c-0.3,0.9-0.3,2.7-0.3,3.6V63.5z"/>
<path class="st0" d="M51.2,57.8h-0.6c-0.1-2.3-1-3-3.3-3c-0.9,0-2.3-0.1-2.3,0.6v11.3c0,1.8,0.3,2.4,2.6,2.5v0.5
	c-1.3,0-2.6-0.1-3.9-0.1c-1.3,0-2.5,0.1-3.8,0.1v-0.5c2.3-0.1,2.6-0.8,2.6-2.5V55.5c0-0.7-1-0.6-2-0.6c-2.4,0-3.5,0.1-3.6,3h-0.5
	v-3.7H51L51.2,57.8z"/>
<path class="st0" d="M67.2,63.5c0,4.3-1.7,6.6-6.2,6.6c-4.3,0-6.3-1.5-6.3-5.8v-5.7c0-0.8,0-2.5-0.2-3.2c-0.3-0.8-1.3-0.8-2-0.8
	v-0.5c1.1,0,2.3,0.1,3.4,0.1c1.2,0,2.4-0.1,3.6-0.1v0.5c-0.8,0-1.8,0-2,0.8c-0.2,0.6-0.2,2.4-0.2,3.2v5.9c0,3,1.2,4.8,4.4,4.8
	c3.3,0,4.9-1.7,4.9-4.9v-5.2c0-0.8,0-2.7-0.2-3.4c-0.3-1-1.3-1.1-2.2-1.1v-0.5c0.9,0,1.8,0.1,2.8,0.1c0.9,0,1.8-0.1,2.7-0.1v0.5
	c-0.8,0-1.6,0-1.9,0.9c-0.3,0.9-0.3,2.7-0.3,3.6V63.5z"/>
<path class="st0" d="M84.2,67.9c0.8,0.9,1.1,1.2,2.3,1.4v0.5c-0.7,0-1.4-0.1-2.1-0.1c-0.6,0-1.2,0.1-1.8,0.1l-1.1-1.4l-4-4.9
	c-0.8-0.9-0.7-1-2-1v2.8c0,0.8,0,2.5,0.2,3.2c0.3,0.8,1.3,0.8,2,0.8v0.5c-1.1,0-2.2-0.1-3.4-0.1c-1.2,0-2.4,0.1-3.6,0.1v-0.5
	c0.8,0,1.8,0,2-0.8c0.2-0.6,0.2-2.4,0.2-3.2v-6.7c0-0.8,0-2.5-0.2-3.2c-0.3-0.8-1.3-0.8-2-0.8v-0.5c1.4,0,2.7,0.1,4.1,0.1
	c1,0,2-0.1,3-0.1c2.7,0,5.4,0.6,5.4,3.9c0,2.6-2,3.9-4.3,4.1L84.2,67.9z M75.6,61.9c3,0,5.1-0.1,5.1-3.5c0-2.1-1.2-3.6-3.3-3.6
	c-0.3,0-1.3-0.1-1.5,0c-0.3,0.1-0.3,0.6-0.3,0.9V61.9z"/>
<path class="st0" d="M88.9,58.7c0-0.8,0-2.5-0.2-3.2c-0.3-0.8-1.3-0.8-2-0.8v-0.6h11.8v3.6h-0.5c-0.5-2.8-1.7-2.9-4.2-2.9H92
	c-0.7,0-0.6-0.1-0.6,1v5.6c3.3,0.1,3.7-1.2,3.9-2.9h0.5c0,1.1,0,2.2-0.1,3.2c0,1,0.1,2,0.1,2.9h-0.5c-0.3-2.5-1.6-2.6-3.9-2.6v3.9
	c0,0.7,0,1.8,0.4,2.4c0.6,0.8,2.1,0.9,3,0.9c2.5,0,4.1-0.4,4.4-3.2h0.5l-0.2,3.8H86.6v-0.5c0.8,0,1.7,0,2-0.8
	c0.2-0.6,0.2-2.4,0.2-3.2V58.7z"/>
<path class="st0" d="M108,62c0-4.7,4.1-8.2,8.7-8.2c4.5,0,8.5,3.3,8.5,8c0,4.9-3.8,8.3-8.6,8.3C112,70.1,108,66.8,108,62z M111,62
	c0,3.7,1.5,7.4,5.8,7.4c4.2,0,5.5-4,5.5-7.5c0-3.6-1.5-7.5-5.7-7.5C112.5,54.5,111,58.5,111,62z"/>
<path class="st0" d="M139.1,57.8h-0.5c-0.3-1-0.5-2-1.6-2.5c-1-0.5-2.4-0.4-3.5-0.4c-1.9,0-1.8-0.2-1.9,1.3v5.3
	c3.3,0.1,3.7-1.2,3.9-2.9h0.5c0,1.1,0,2.2-0.1,3.2c0,1,0.1,2,0.1,3h-0.5c-0.3-2.5-1.6-2.5-3.9-2.5v3c0,0.7,0,2.5,0.2,3.1
	c0.4,1,1.5,0.8,2.4,0.8v0.5c-1.2,0-2.5-0.1-3.7-0.1c-1.2,0-2.4,0.1-3.7,0.1v-0.5c0.8,0,1.7,0,2-0.8c0.2-0.6,0.2-2.4,0.2-3.2v-6.7
	c0-0.8,0-2.5-0.2-3.2c-0.3-0.8-1.3-0.8-2-0.8v-0.5c1.5,0,2.9,0.1,4.3,0.1c2.5,0,5.1-0.1,7.6-0.1L139.1,57.8z"/>
<path class="st0" d="M25.9,85.7l-3.5,11.8c-1.2,3.5-2.4,6.9-3.6,10.4h-1.5L9.8,84.5c-0.3-1-1-3.3-1.6-4c-0.7-1-1.9-1-3.1-1.1v-1
	c2.1,0,4.2,0.1,6.2,0.2c2.1,0,4.3-0.1,6.4-0.2v1c-1.4,0.1-3.9,0.1-3.9,2.1c0,1,1,4.2,1.3,5.3l4.6,14.9l6.9-23.3H28l7.2,23l3-9.5
	c0.6-1.9,2.3-7.9,2.3-9.6c0-2.7-1.6-2.7-3.7-2.9v-1c1.6,0,3.1,0.1,4.7,0.2c1.5,0,3-0.1,4.5-0.2v1c-3.2-0.1-3.8,3.3-4.5,5.7
	l-7.2,22.8h-1.5L25.9,85.7z"/>
<path class="st0" d="M46.7,92.8c0-8.6,7.5-15,15.9-15c8.3,0,15.6,6.1,15.6,14.7c0,8.9-7,15.1-15.7,15.1
	C53.9,107.6,46.7,101.5,46.7,92.8z M52.1,92.8c0,6.8,2.7,13.6,10.6,13.6c7.7,0,10.1-7.2,10.1-13.7C72.7,86.2,70,79,62.4,79
	C54.9,79,52.1,86.4,52.1,92.8z"/>
<path class="st0" d="M105.6,103.5c1.4,1.6,2,2.2,4.3,2.6v1c-1.3,0-2.6-0.1-3.9-0.2c-1.1,0-2.2,0.1-3.3,0.2l-2-2.5l-7.2-8.9
	c-1.4-1.6-1.3-1.9-3.6-1.9v5.1c0,1.4,0,4.6,0.4,5.8c0.5,1.5,2.3,1.5,3.7,1.5v1c-2,0-4-0.1-6.1-0.2c-2.2,0-4.3,0.1-6.5,0.2v-1
	c1.4,0,3.2,0,3.7-1.5c0.4-1.2,0.4-4.4,0.4-5.8V86.6c0-1.4,0-4.6-0.4-5.8c-0.5-1.5-2.3-1.5-3.7-1.5v-1c2.5,0,5,0.1,7.5,0.2
	c1.8,0,3.7-0.1,5.5-0.2c4.9,0,9.9,1.1,9.9,7.2c0,4.7-3.6,7.1-7.9,7.5L105.6,103.5z M89.9,92.5c5.4,0,9.4-0.1,9.4-6.4
	c0-3.8-2.2-6.5-6.1-6.5c-0.5,0-2.4-0.1-2.8,0c-0.6,0.3-0.5,1.1-0.5,1.6V92.5z"/>
<path class="st0" d="M118.6,96.3v5.1c0,4.1,0.1,4.3,4.3,4.7v1c-2.1,0-4.2-0.1-6.3-0.2c-2.2,0-4.4,0.1-6.6,0.2v-1
	c1.4,0,3.2,0,3.7-1.5c0.4-1.2,0.4-4.4,0.4-5.8V86.6c0-1.4,0-4.6-0.4-5.8c-0.6-1.5-2.3-1.5-3.7-1.5v-1c2.1,0,4.1,0.1,6.2,0.2
	c2.3,0,4.5-0.1,6.7-0.2v1c-4.2,0.3-4.3,0.6-4.3,4.7v10.6c2.1-2.2,10.5-11,10.5-13.5c0-1.8-2-1.6-3.3-1.7v-1c1.7,0,3.4,0.1,5.2,0.2
	c1.5,0,3-0.1,4.5-0.2v1c-2.4,0-2.9,0.6-4.4,2.4l-6.9,8.6l6,6.9c0.5,0.7,5.1,6.6,7.1,8.1c0.9,0.7,1.5,0.6,2.6,0.7v1
	c-2.3,0-4.6-0.1-6.9-0.2c-2.2,0-4.4,0.1-6.6,0.2v-1c0.8,0,3.6,0.1,3.6-1.3c0-0.9-2.7-4.1-3.4-4.9l-5.3-6.4L118.6,96.3z"/>
<path class="st0" d="M85.2,22.7c0.1-0.1,0.3-0.4,0.3-0.5c0.1-0.2,0-0.6-0.3-0.6c0,0,0.7-1.2-0.2-1.3c0.2-0.3,0.2-0.4,0.2-0.7
	c0-0.2-0.1-0.3-0.3-0.3c0,0,0.1-1.4-0.4-1.1c0,0,0.3-1.3-0.4-1.1c0,0,0-0.7-0.2-0.9c-0.2-0.2-0.4-0.1-0.4,0c0,0-0.1-1.4-0.7-1
	c0,0-0.1-1.3-0.7-0.7c0,0-0.1-0.3-0.1-0.5c0-0.1-0.1-0.3-0.2-0.4c-0.1-0.2-0.4-0.2-0.5-0.1c0,0,0-0.6-0.2-0.8
	c-0.1-0.1-0.2-0.3-0.5-0.1c0,0,0-1.1-0.7-0.8c0,0-0.1-1-0.6-0.7c0-0.4-0.4-0.9-0.7-0.6c0,0-0.1-0.9-0.6-0.5c0,0-0.1-0.8-0.5-0.5
	c0,0-0.1-0.4-0.2-0.5c-0.2-0.1-0.4,0.1-0.4,0.1c0-0.3-0.3-1-0.7-0.5c-0.1-0.3-0.5-0.9-0.8-0.4c-0.1-0.4-0.4-0.8-0.8-0.6
	c0,0-0.2-0.9-0.6-0.6c0,0-0.1-0.8-0.5-0.5c0,0,0-0.4-0.3-0.5c-0.1,0-0.2,0-0.2,0.1c0,0-0.1-0.6-0.4-0.6c0,0-0.1,0.1-0.1,0.1
	c0,0.1,0,0.4,0,0.4c0,0-0.1-0.1-0.2,0.1C72.1,6.3,72,6.7,72,6.7c-0.2-0.2-0.4,0.5-0.5,0.7c0,0-0.1-0.1-0.2-0.1
	c-0.3,0.1-0.3,0.4-0.4,0.6c-0.3-0.4-0.7,0.5-0.7,0.5c0-0.1-0.2-0.1-0.2-0.1c-0.2,0.1-0.4,0.6-0.4,0.6c-0.1-0.2-0.2-0.1-0.3-0.1
	c-0.2,0.1-0.4,0.6-0.4,0.6c0-0.1-0.2-0.3-0.4-0.2C68.2,9.2,68,9.8,68,9.8c-0.4-0.7-0.7,0.2-0.9,0.5c-0.4-0.7-0.9,0.4-0.9,0.4
	c-0.1-0.1-0.2-0.2-0.3-0.1c-0.4,0.2-0.4,0.7-0.4,0.7c-0.2-0.2-0.5,0.1-0.6,0.3c-0.1,0.2-0.2,0.5-0.3,0.6c-0.1-0.2-0.2-0.1-0.3-0.1
	C64,12.2,64,12.7,64,12.7c-0.5-0.3-0.7,0.7-0.7,0.7c-0.5-0.4-0.6,1-0.6,1c-0.1-0.1-0.4-0.1-0.5,0.3c-0.1,0.2-0.1,0.6-0.1,0.6
	c-0.6-0.3-0.5,0.8-0.5,0.8c-0.2-0.2-0.4,0.1-0.4,0.3c-0.1,0.3,0,0.5,0,0.5c-0.6-0.1-0.5,0.9-0.5,0.9c-0.1-0.2-0.3-0.1-0.4,0
	c-0.1,0.2,0,0.8,0,0.8c-0.2-0.2-0.3,0-0.4,0.2c0,0.2,0,0.7,0,0.7c-0.3-0.2-0.3,0-0.4,0.1c-0.1,0.2,0.1,0.8,0.1,0.8
	c-0.2-0.1-0.4,0.1-0.4,0.3c-0.1,0.4,0.3,1,0.3,1c-0.6,0.1,0,1.1,0.1,1.5c0,0-0.1,0-0.2,0.3c-0.1,0.6,0.5,1.6,1.1,2.1
	c-0.5,0.8,1.3,1.6,1.8,1.7c0,0,0,0.5,0.4,0.9c0.3,0.2,1.4,0.7,1.9,0.7c0,0,0,0.5,0.3,0.7c0.4,0.2,1.2,0.4,1.8,0.3
	c0.7,1.1,2.7,0.8,4.1,0.4c1.4-0.4,1.8,0.1,1.8,0.2c0.8,1.9,1.6,6.5,0.6,10.6c-0.1,0.3-0.1,0.4-0.2,0.4c-0.3,0-0.6,0.4-0.5,0.8
	c0,0.3,0.2,0.9,0.5,1c0.1,0,0.2,0,0.3-0.2c2.2-6.7,0.1-11.6,0.2-12.1c0-1.8,2.1-0.7,3-0.6c1.8,0.3,3.1,0.1,3.7-0.9
	c0,0,2-0.1,2.1-1.4c0,0,0.6-0.1,0.8-0.4c0.2-0.2,0.5-0.4,0.4-0.8c0,0,0.4-0.2,0.6-0.5c0.2-0.3,0.6-0.8,0.1-0.9c0,0,1.2-1.3,0.5-1.5
	c0,0,0.2-0.3,0.3-0.5C85.4,23.3,85.5,22.7,85.2,22.7z"/>
<path class="st0" d="M13.7,35h-0.3c-0.1-1.2-0.5-1.5-1.6-1.5c-0.4,0-1.2-0.1-1.2,0.3v5.8c0,0.9,0.2,1.3,1.3,1.3v0.3
	c-0.7,0-1.3,0-2,0c-0.6,0-1.2,0-1.9,0V41c1.2,0,1.3-0.4,1.3-1.3v-5.8c0-0.4-0.5-0.3-1-0.3c-1.2,0-1.7,0.1-1.8,1.5H6.4v-1.9h7.3
	L13.7,35z"/>
<path class="st0" d="M16.3,38.9c0,0.4,0,1.3,0.1,1.6c0.2,0.4,0.6,0.4,1,0.4v0.3c-0.6,0-1.2,0-1.7,0c-0.6,0-1.2,0-1.8,0V41
	c0.4,0,0.9,0,1-0.4c0.1-0.3,0.1-1.2,0.1-1.6v-3.5c0-0.4,0-1.3-0.1-1.6c-0.2-0.4-0.6-0.4-1-0.4v-0.3c0.6,0,1.1,0,1.7,0
	c0.6,0,1.2,0,1.8,0v0.3c-0.4,0-0.9,0-1,0.4c-0.1,0.3-0.1,1.2-0.1,1.6v1.4h4.2v-1.4c0-0.4,0-1.3-0.1-1.6c-0.2-0.4-0.6-0.4-1-0.4v-0.3
	c0.6,0,1.2,0,1.7,0c0.6,0,1.2,0,1.8,0v0.3c-0.4,0-0.9,0-1,0.4c-0.1,0.3-0.1,1.2-0.1,1.6v3.5c0,0.4,0,1.3,0.1,1.6
	c0.2,0.4,0.6,0.4,1,0.4v0.3c-0.6,0-1.2,0-1.7,0c-0.6,0-1.2,0-1.8,0V41c0.4,0,0.9,0,1-0.4c0.1-0.3,0.1-1.2,0.1-1.6v-1.6h-4.2V38.9z"
	/>
<path class="st0" d="M24.8,35.5c0-0.4,0-1.3-0.1-1.6c-0.2-0.4-0.6-0.4-1-0.4v-0.3h5.9v1.9h-0.3c-0.2-1.4-0.8-1.5-2.1-1.5h-0.9
	c-0.4,0-0.3,0-0.3,0.5v2.9c1.6,0.1,1.9-0.6,1.9-1.5h0.3c0,0.6,0,1.1,0,1.7c0,0.5,0,1,0,1.5h-0.3c-0.2-1.3-0.8-1.4-1.9-1.4v2
	c0,0.4,0,0.9,0.2,1.2c0.3,0.4,1,0.5,1.5,0.4c1.2,0,2-0.2,2.2-1.6h0.3l-0.1,2h-6.5v-0.3c0.4,0,0.9,0,1-0.4c0.1-0.3,0.1-1.2,0.1-1.6
	V35.5z"/>
<path class="st0" d="M35.9,37.9l1.3-3.5l1.3,3.5H35.9z M35.7,38.3h2.9l0.5,1.3c0.1,0.3,0.2,0.7,0.2,1c0,0.5-0.6,0.5-0.9,0.5v0.3
	c0.6,0,1.2,0,1.7,0c0.6,0,1.1,0,1.7,0V41c-0.4,0-0.8-0.1-1-0.5c-0.2-0.3-0.5-1-0.6-1.4l-2.4-6.3h-0.4l-1.8,4.8
	c-0.3,0.8-0.7,1.6-1,2.4c-0.2,0.6-0.5,0.8-1.1,0.9v0.3c0.4,0,0.8,0,1.2,0c0.4,0,0.9,0,1.3,0V41c-0.4,0-1,0-1-0.5
	c0-0.5,0.4-1.4,0.6-1.9L35.7,38.3z"/>
<path class="st0" d="M42.1,38.8h0.3c0.2,1.2,0.9,2.3,2.2,2.3c0.9,0,1.7-0.5,1.7-1.5c0-1.1-0.9-1.6-1.8-1.9c-1.1-0.4-2.2-1-2.2-2.4
	c0-1.4,1.1-2.2,2.4-2.2c0.7,0,1.3,0.2,1.8,0.6l0.3-0.5h0.1l0.1,2.1h-0.3c-0.3-1-0.8-1.9-2-1.9c-0.8,0-1.4,0.5-1.4,1.3
	c0,1,0.8,1.3,1.6,1.6c1.2,0.5,2.6,1.2,2.6,2.8s-1.4,2.4-2.8,2.4c-0.8,0-1.4-0.2-2.1-0.7l-0.3,0.5h-0.1V38.8z"/>
<path class="st0" d="M50.4,34c0-0.6,0-0.6,0.8-0.6c1.2,0,1.7,0.6,1.7,1.8c0,1.3-0.6,1.9-1.8,1.9c-0.2,0-0.5,0-0.7,0V34z M50.4,37.4
	c0,0,0.6,0,0.8,0c1.4,0,3.1-0.4,3.1-2.2c0-1.6-1.4-2.1-2.7-2.1c-0.6,0-1.1,0-1.7,0c-0.6,0-1.2,0-1.8,0v0.3c0.4,0,0.9,0,1,0.4
	c0.1,0.3,0.1,1.2,0.1,1.6v3.5c0,0.4,0,1.3-0.1,1.6C49,41,48.5,41,48.1,41v0.3c0.6,0,1.2,0,1.7,0c0.6,0,1.2,0,1.9,0V41
	c-0.4,0-1,0.1-1.1-0.4c-0.1-0.3-0.1-1.2-0.1-1.6V37.4z"/>
<path class="st0" d="M56.1,35.5c0-0.4,0-1.3-0.1-1.6c-0.2-0.4-0.6-0.4-1-0.4v-0.3h5.9v1.9h-0.3c-0.2-1.4-0.8-1.5-2.1-1.5h-0.9
	c-0.4,0-0.3,0-0.3,0.5v2.9c1.6,0.1,1.9-0.6,1.9-1.5h0.3c0,0.6,0,1.1,0,1.7c0,0.5,0,1,0,1.5h-0.3c-0.2-1.3-0.8-1.4-1.9-1.4v2
	c0,0.4,0,0.9,0.2,1.2c0.3,0.4,1,0.5,1.5,0.4c1.2,0,2-0.2,2.2-1.6h0.3l-0.1,2H55v-0.3c0.4,0,0.9,0,1-0.4c0.1-0.3,0.1-1.2,0.1-1.6
	V35.5z"/>
<path class="st0" d="M63.2,34.1c-0.4-0.5-0.7-0.7-1.3-0.7v-0.3c0.4,0,0.7,0,1.1,0c0.3,0,0.6,0,0.9,0l5,6.3h0V36c0-0.5,0-1.4-0.1-1.9
	c-0.1-0.7-0.5-0.6-1.1-0.7v-0.3c0.4,0,0.9,0,1.3,0c0.4,0,0.8,0,1.3,0v0.3c-0.4,0-0.7,0-0.9,0.5c-0.1,0.4-0.1,1.7-0.1,2.2v5.3H69
	c-0.3-0.3-0.5-0.7-0.8-1l-4.6-5.8h0v4.1c0,0.5,0,1.4,0.2,1.8c0.2,0.5,0.6,0.5,1,0.5v0.3c-0.5,0-0.9,0-1.4,0c-0.4,0-0.9,0-1.3,0V41
	c0.5,0,0.9-0.1,1-0.6c0.1-0.4,0.1-1.2,0.1-1.7V34.1z"/>
<path class="st0" d="M78.4,35.4c0-0.4,0-1.3-0.1-1.6c-0.2-0.4-0.6-0.4-1-0.4v-0.3c0.6,0,1.1,0,1.7,0c0.6,0,1.2,0,1.8,0v0.3
	c-0.4,0-0.9,0-1,0.4c-0.1,0.3-0.1,1.2-0.1,1.6v3.5c0,0.4,0,1.3,0.1,1.6c0.2,0.4,0.6,0.4,1,0.4v0.3c-0.6,0-1.1,0-1.7,0
	c-0.6,0-1.2,0-1.8,0V41c0.4,0,0.9,0,1-0.4c0.1-0.3,0.1-1.2,0.1-1.6V35.4z"/>
<path class="st0" d="M82.7,34.1c-0.4-0.5-0.7-0.7-1.3-0.7v-0.3c0.4,0,0.7,0,1.1,0c0.3,0,0.6,0,0.9,0l5,6.3h0V36c0-0.5,0-1.4-0.1-1.9
	c-0.1-0.7-0.5-0.6-1.1-0.7v-0.3c0.4,0,0.9,0,1.3,0c0.4,0,0.8,0,1.3,0v0.3c-0.4,0-0.7,0-0.9,0.5c-0.1,0.4-0.1,1.7-0.1,2.2v5.3h-0.4
	c-0.3-0.3-0.5-0.7-0.8-1l-4.6-5.8h0v4.1c0,0.5,0,1.4,0.2,1.8c0.2,0.5,0.6,0.5,1,0.5v0.3c-0.5,0-0.9,0-1.4,0c-0.4,0-0.9,0-1.3,0V41
	c0.5,0,0.9-0.1,1-0.6c0.1-0.4,0.1-1.2,0.1-1.7V34.1z"/>
<path class="st0" d="M90.3,38.8h0.3c0.2,1.2,0.9,2.3,2.2,2.3c0.9,0,1.7-0.5,1.7-1.5c0-1.1-0.9-1.6-1.8-1.9c-1.1-0.4-2.2-1-2.2-2.4
	c0-1.4,1.1-2.2,2.4-2.2c0.7,0,1.3,0.2,1.8,0.6l0.3-0.5h0.1l0.1,2.1h-0.3c-0.3-1-0.8-1.9-2-1.9c-0.8,0-1.4,0.5-1.4,1.3
	c0,1,0.8,1.3,1.6,1.6c1.2,0.5,2.6,1.2,2.6,2.8s-1.4,2.4-2.8,2.4c-0.8,0-1.4-0.2-2.1-0.7l-0.3,0.5h-0.1V38.8z"/>
<path class="st0" d="M103.6,35h-0.3c-0.1-1.2-0.5-1.5-1.6-1.5c-0.4,0-1.2-0.1-1.2,0.3v5.8c0,0.9,0.2,1.3,1.3,1.3v0.3
	c-0.7,0-1.3,0-2,0c-0.6,0-1.2,0-1.9,0V41c1.2,0,1.3-0.4,1.3-1.3v-5.8c0-0.4-0.5-0.3-1-0.3c-1.2,0-1.7,0.1-1.8,1.5h-0.3v-1.9h7.3
	L103.6,35z"/>
<path class="st0" d="M105.3,35.4c0-0.4,0-1.3-0.1-1.6c-0.2-0.4-0.6-0.4-1-0.4v-0.3c0.6,0,1.1,0,1.7,0c0.6,0,1.2,0,1.8,0v0.3
	c-0.4,0-0.9,0-1,0.4c-0.1,0.3-0.1,1.2-0.1,1.6v3.5c0,0.4,0,1.3,0.1,1.6c0.2,0.4,0.6,0.4,1,0.4v0.3c-0.6,0-1.1,0-1.7,0
	c-0.6,0-1.2,0-1.8,0V41c0.4,0,0.9,0,1-0.4c0.1-0.3,0.1-1.2,0.1-1.6V35.4z"/>
<path class="st0" d="M115.7,35h-0.3c-0.1-1.2-0.5-1.5-1.6-1.5c-0.4,0-1.2-0.1-1.2,0.3v5.8c0,0.9,0.2,1.3,1.3,1.3v0.3
	c-0.7,0-1.3,0-2,0c-0.6,0-1.2,0-1.9,0V41c1.2,0,1.3-0.4,1.3-1.3v-5.8c0-0.4-0.5-0.3-1-0.3c-1.2,0-1.7,0.1-1.8,1.5h-0.3v-1.9h7.3
	L115.7,35z"/>
<path class="st0" d="M123.6,38c0,2.2-0.8,3.4-3.1,3.4c-2.1,0-3.2-0.8-3.2-3v-2.9c0-0.4,0-1.3-0.1-1.6c-0.2-0.4-0.6-0.4-1-0.4v-0.3
	c0.6,0,1.1,0,1.7,0c0.6,0,1.2,0,1.8,0v0.3c-0.4,0-0.9,0-1,0.4c-0.1,0.3-0.1,1.2-0.1,1.6v3c0,1.6,0.6,2.5,2.2,2.5
	c1.6,0,2.5-0.9,2.5-2.5v-2.7c0-0.4,0-1.4-0.1-1.8c-0.2-0.5-0.6-0.6-1.1-0.6v-0.3c0.5,0,0.9,0,1.4,0c0.4,0,0.9,0,1.3,0v0.3
	c-0.4,0-0.8,0-1,0.4c-0.2,0.4-0.2,1.4-0.2,1.9V38z"/>
<path class="st0" d="M132.8,35h-0.3c-0.1-1.2-0.5-1.5-1.6-1.5c-0.4,0-1.2-0.1-1.2,0.3v5.8c0,0.9,0.2,1.3,1.3,1.3v0.3
	c-0.7,0-1.3,0-2,0c-0.6,0-1.2,0-1.9,0V41c1.2,0,1.3-0.4,1.3-1.3v-5.8c0-0.4-0.5-0.3-1-0.3c-1.2,0-1.7,0.1-1.8,1.5h-0.3v-1.9h7.3
	L132.8,35z"/>
<path class="st0" d="M134.4,35.5c0-0.4,0-1.3-0.1-1.6c-0.2-0.4-0.6-0.4-1-0.4v-0.3h5.9v1.9h-0.3c-0.2-1.4-0.8-1.5-2.1-1.5H136
	c-0.4,0-0.3,0-0.3,0.5v2.9c1.6,0.1,1.9-0.6,1.9-1.5h0.3c0,0.6,0,1.1,0,1.7c0,0.5,0,1,0,1.5h-0.3c-0.2-1.3-0.8-1.4-1.9-1.4v2
	c0,0.4,0,0.9,0.2,1.2c0.3,0.4,1,0.5,1.5,0.4c1.2,0,2-0.2,2.2-1.6h0.3l-0.1,2h-6.5v-0.3c0.4,0,0.9,0,1-0.4c0.1-0.3,0.1-1.2,0.1-1.6
	V35.5z"/>
<line class="st1" x1="5.8" y1="47" x2="139.9" y2="47"/>
<path class="st0" d="M8.3,124.4c0-0.6,0-2.1-0.2-2.7c-0.3-0.7-1.1-0.7-1.7-0.7v-0.5c1,0,1.9,0.1,2.9,0.1c1,0,2-0.1,3-0.1v0.5
	c-0.6,0-1.5,0-1.7,0.7c-0.2,0.5-0.2,2-0.2,2.7v5.7c0,0.6,0,2.1,0.2,2.7c0.3,0.7,1.1,0.7,1.7,0.7v0.5c-0.9,0-1.9-0.1-2.9-0.1
	c-1,0-2,0.1-3,0.1v-0.5c0.6,0,1.5,0,1.7-0.7c0.2-0.5,0.2-2,0.2-2.7V124.4z"/>
<path class="st0" d="M18.5,122.3c-0.6-0.9-1.1-1.2-2.2-1.2v-0.5c0.6,0,1.3,0.1,1.9,0.1c0.5,0,1.1-0.1,1.6-0.1l8.5,10.3v-5.6
	c0-0.9,0-2.3-0.2-3.1c-0.2-1.1-0.8-1-1.8-1.2v-0.5c0.7,0,1.5,0.1,2.2,0.1c0.7,0,1.4-0.1,2.1-0.1v0.5c-0.7,0.1-1.3,0-1.5,0.9
	c-0.2,0.6-0.2,2.7-0.2,3.5v8.6h-0.6c-0.4-0.5-0.9-1.1-1.3-1.7l-7.9-9.5v6.7c0,0.7,0,2.2,0.3,2.9c0.3,0.8,1,0.7,1.7,0.8v0.5
	c-0.8,0-1.5-0.1-2.3-0.1c-0.7,0-1.5,0.1-2.2,0.1v-0.5c0.8-0.1,1.5-0.1,1.7-1c0.2-0.7,0.2-2,0.2-2.8V122.3z"/>
<path class="st0" d="M36.7,124.4c0-0.6,0-2.1-0.2-2.7c-0.3-0.7-1.1-0.7-1.7-0.7v-0.5c1,0,1.9,0.1,2.9,0.1c1,0,2-0.1,3-0.1v0.5
	c-0.6,0-1.5,0-1.7,0.7c-0.2,0.5-0.2,2-0.2,2.7v5.7c0,0.6,0,2.1,0.2,2.7c0.3,0.7,1.1,0.7,1.7,0.7v0.5c-0.9,0-1.9-0.1-2.9-0.1
	c-1,0-2,0.1-3,0.1v-0.5c0.6,0,1.5,0,1.7-0.7c0.2-0.5,0.2-2,0.2-2.7V124.4z"/>
<path class="st0" d="M57.3,123.7h-0.5c-0.1-2-0.9-2.5-2.8-2.5c-0.7,0-1.9-0.1-1.9,0.5v9.5c0,1.5,0.3,2,2.2,2.1v0.5
	c-1.1,0-2.2-0.1-3.3-0.1c-1.1,0-2.1,0.1-3.2,0.1v-0.5c1.9-0.1,2.2-0.6,2.2-2.1v-9.5c0-0.6-0.9-0.5-1.7-0.5c-2,0-2.9,0.1-3,2.5h-0.5
	v-3.1h12.3L57.3,123.7z"/>
<path class="st0" d="M63.2,124.4c0-0.6,0-2.1-0.2-2.7c-0.3-0.7-1.1-0.7-1.7-0.7v-0.5c1,0,1.9,0.1,2.9,0.1c1,0,2-0.1,3-0.1v0.5
	c-0.6,0-1.5,0-1.7,0.7c-0.2,0.5-0.2,2-0.2,2.7v5.7c0,0.6,0,2.1,0.2,2.7c0.3,0.7,1.1,0.7,1.7,0.7v0.5c-0.9,0-1.9-0.1-2.9-0.1
	c-1,0-2,0.1-3,0.1v-0.5c0.6,0,1.5,0,1.7-0.7c0.2-0.5,0.2-2,0.2-2.7V124.4z"/>
<path class="st0" d="M74.1,129.5c-0.3,0.8-1,2.2-1,3c0,0.9,1,0.8,1.6,0.9v0.5c-0.7,0-1.5-0.1-2.2-0.1c-0.7,0-1.4,0.1-2.1,0.1v-0.5
	c1.1-0.1,1.5-0.4,1.9-1.4c0.6-1.3,1.1-2.5,1.7-3.8l3.1-7.9h0.7l4,10.2c0.2,0.5,0.7,1.7,1,2.2c0.4,0.6,1,0.7,1.7,0.7v0.5
	c-0.9,0-1.9-0.1-2.8-0.1c-1,0-1.9,0.1-2.9,0.1v-0.5c0.6,0,1.5,0,1.5-0.8c0-0.5-0.2-1.1-0.4-1.6l-0.8-2.1h-5L74.1,129.5z M79,128.4
	l-2.2-5.7l-2.2,5.7H79z"/>
<path class="st0" d="M98.9,123.7h-0.5c-0.1-2-0.9-2.5-2.8-2.5c-0.7,0-1.9-0.1-1.9,0.5v9.5c0,1.5,0.3,2,2.2,2.1v0.5
	c-1.1,0-2.2-0.1-3.3-0.1c-1.1,0-2.1,0.1-3.2,0.1v-0.5c1.9-0.1,2.2-0.6,2.2-2.1v-9.5c0-0.6-0.9-0.5-1.7-0.5c-2,0-2.9,0.1-3,2.5h-0.5
	v-3.1h12.3L98.9,123.7z"/>
<path class="st0" d="M104.8,124.4c0-0.6,0-2.1-0.2-2.7c-0.3-0.7-1.1-0.7-1.7-0.7v-0.5c1,0,1.9,0.1,2.9,0.1c1,0,2-0.1,3-0.1v0.5
	c-0.6,0-1.5,0-1.7,0.7c-0.2,0.5-0.2,2-0.2,2.7v5.7c0,0.6,0,2.1,0.2,2.7c0.3,0.7,1.1,0.7,1.7,0.7v0.5c-0.9,0-1.9-0.1-2.9-0.1
	c-1,0-2,0.1-3,0.1v-0.5c0.6,0,1.5,0,1.7-0.7c0.2-0.5,0.2-2,0.2-2.7V124.4z"/>
<path class="st0" d="M114.4,123.5c-0.5-1.3-0.8-2.4-2.4-2.5v-0.5c0.9,0,1.9,0.1,2.8,0.1c1,0,2-0.1,2.9-0.1v0.5c-0.6,0-1.6,0-1.6,0.8
	c0,0.7,1.2,3.8,1.5,4.6l2,5.1l1.9-4.7c0.4-1,1.5-4,1.5-4.9c0-1-0.8-1-1.6-1v-0.5c0.8,0,1.5,0.1,2.3,0.1c0.7,0,1.4-0.1,2.1-0.1v0.5
	c-1.7,0-2.1,1.7-2.6,3l-4.1,10.1h-0.6L114.4,123.5z"/>
<path class="st0" d="M130.9,124.5c0-0.6,0-2.1-0.2-2.7c-0.3-0.7-1.1-0.7-1.7-0.7v-0.5h10v3h-0.5c-0.4-2.3-1.4-2.5-3.5-2.5h-1.4
	c-0.6,0-0.5-0.1-0.5,0.8v4.8c2.7,0.1,3.1-1,3.3-2.5h0.5c0,0.9,0,1.8-0.1,2.7c0,0.8,0.1,1.7,0.1,2.5h-0.5c-0.3-2.1-1.3-2.2-3.3-2.2
	v3.3c0,0.6,0,1.5,0.4,2c0.5,0.7,1.8,0.7,2.6,0.7c2.1,0,3.4-0.3,3.7-2.7h0.5l-0.2,3.2H129v-0.5c0.6,0,1.5,0,1.7-0.7
	c0.2-0.5,0.2-2,0.2-2.7V124.5z"/>
<line class="st1" x1="6.4" y1="114.3" x2="139.9" y2="114.3"/>
</svg>
