<svg xmlns="http://www.w3.org/2000/svg" viewBox="0 0 305 173"><style>.st0{fill:#003961}.st1{fill:#2099b7}.st2{enable-background:new}.st3{fill:#b31b1b}.st4,.st5{opacity:.549;enable-background:new}.st5{opacity:.2118}</style><path class="st0" d="M163.8 118.1h-4.6v-15.8h4.8c5.7 0 9.3 3.1 9.3 7.8-.1 4.9-3.5 8-9.5 8zm0-14.3H161v12.8h2.9c4.5 0 7.5-2.1 7.5-6.4 0-4-2.8-6.4-7.6-6.4zm26 14.3H188l-1.8-4.5h-7.9l-1.8 4.5h-1.8l6.6-15.8h2.1l6.4 15.8zm-7.6-14.2l-3.4 8.2h6.7l-3.3-8.2zm14.9-.1V118h-1.8v-14.2h-6.2v-1.5h14.1v1.5h-6.1zm20.8 14.3h-1.8l-1.8-4.5h-7.9l-1.8 4.5h-1.8l6.6-15.8h2.1l6.4 15.8zm-7.6-14.2l-3.4 8.2h6.7l-3.3-8.2zm28.2 14.2v-7.2h-10.2v7.2h-1.8v-15.8h1.8v7.1h10.2v-7.1h1.8v15.8h-1.8zm12.3.3c-4.2 0-6.6-2.4-6.6-6.1v-10h1.7v9.8c0 3 1.7 4.8 4.9 4.8 3.1 0 4.8-1.7 4.8-4.8v-9.8h1.8v9.7c0 3.9-2.2 6.4-6.6 6.4zm22.6-4.7c0 2.6-1.9 4.4-6.3 4.4h-5.7v-15.8h5.5c4.2 0 6 1.7 6 4.1 0 1.5-1 3-3.4 3.6 2.6.4 3.9 1.8 3.9 3.7zm-6.4-9.9h-3.8v5.7h3.5c2.6 0 4.4-1 4.4-2.9 0-1.8-1.4-2.8-4.1-2.8zm-.2 7.1h-3.6v5.7h4c3.1 0 4.4-1.1 4.4-2.9 0-1.9-1.7-2.8-4.8-2.8z" id="DATA_HUB"/><path class="st1" d="M116.3 95.1c-6.5 0-10.9-4.5-10.9-11.7 0-7.2 4.6-11.8 10.9-11.8 2.8 0 5.5.9 7.1 1.9l-.8 2.1c-1.7-1.1-4.1-1.9-6.4-1.9-4.9 0-8.5 3.5-8.5 9.6 0 5.9 3.4 9.6 8.6 9.6 2.1 0 4-.6 5.4-1.4v-6.1h-6.5v-2.1h8.7v9.4c-2.1 1.7-5 2.4-7.6 2.4zm14.1-20.7c-1 0-1.5-.8-1.5-1.7 0-.8.5-1.6 1.5-1.6s1.5.8 1.5 1.6c0 .9-.5 1.7-1.5 1.7zm-1.2 20.3V78.2l2.2-.5v17h-2.2zm6.9-2.6c0-1.4 1.2-2.6 2.7-3.1-1.6-1-2.7-2.8-2.7-5 0-3.5 2.6-6.2 6.5-6.2 1.7 0 3 .5 3.9 1l4.6-.4.1 2.2-3.6-.4c.8.8 1.3 2.4 1.3 3.7 0 3.5-2.7 6-6.4 6-.9 0-1.6-.2-2.4-.5-.9.4-1.8 1-1.8 2s.8 1.7 3.7 1.7h2.1c4.8 0 6.8 1.6 6.8 4.3 0 3.6-4.1 6.1-8.7 6.1-4.4 0-7.5-1.9-7.5-4.8 0-1.9 1.4-3.5 3.6-4.1-1.4-.4-2.2-1.3-2.2-2.5zm.8 6.3c0 1.9 2.1 3.4 5.6 3.4 3.4 0 6.2-1.7 6.2-3.9 0-1.9-1.7-2.6-5-2.6-1.1 0-2.5 0-3.5-.1-1.9.5-3.3 1.8-3.3 3.2zm5.7-10.3c2.5 0 4.1-1.8 4.1-4.3 0-2.4-1.4-4.3-4.2-4.3-2.6 0-4.1 1.8-4.1 4.4 0 2.4 1.5 4.2 4.2 4.2zm20.6 6.6V72.2h13.6v2.1h-11.3v8.1h9.4v2.1h-9.4v8.1h11.3v2.1h-13.6zm25.1.4c-5 0-8.1-3.6-8.1-8.7s3.4-8.7 8.1-8.7c2 0 3.7.5 5.1 1.4l-.6 2c-1.3-.8-2.8-1.3-4.6-1.3-3.6 0-5.8 2.7-5.8 6.6 0 4 2.3 6.7 5.8 6.7 1.7 0 3.3-.5 4.6-1.4l.5 2.1c-1.3.8-3.1 1.3-5 1.3zm16.3 0c-4.6 0-8-3.4-8-8.7 0-5.3 3.5-8.7 8.1-8.7s7.9 3.4 7.9 8.7c.1 5.2-3.4 8.7-8 8.7zm.1-15.4c-3.5 0-5.8 2.8-5.8 6.7 0 4 2.3 6.7 5.8 6.7s5.8-2.8 5.8-6.7c0-4-2.3-6.7-5.8-6.7zm23.4 15V84c0-2.9-1.2-4.2-3.6-4.2-1.8 0-3.6 1-5 2.3v12.5h-2.2V78.2l2.2-.5v2.7c1.7-1.7 3.9-2.7 5.6-2.7 3.3 0 5.3 2.1 5.3 5.7v11.3h-2.3zm14.5.4c-4.6 0-8-3.4-8-8.7 0-5.3 3.5-8.7 8.1-8.7s7.9 3.4 7.9 8.7c.1 5.2-3.4 8.7-8 8.7zm.1-15.4c-3.5 0-5.8 2.8-5.8 6.7 0 4 2.3 6.7 5.8 6.7s5.8-2.8 5.8-6.7c0-4-2.3-6.7-5.8-6.7zm33.1 15V84c0-2.9-1.1-4.2-3.5-4.2-1.8 0-3.4.9-4.6 2.1 0 .2.1 1.1.1 1.5v11.2h-2.2V84c0-2.9-1.1-4.2-3.5-4.2-1.7 0-3.3.8-4.6 1.9v12.9h-2.2V78.2l2.2-.5V80c1.7-1.5 3.5-2.3 5.2-2.3 2.1 0 3.7.9 4.5 2.7 1.8-1.8 3.9-2.7 5.8-2.7 3.1 0 5.1 2.1 5.1 5.7v11.3h-2.3zm13.8-.2l-1.3 3.6c-1.5 4-3.1 5.2-5.3 5.2-1.3 0-2.2-.3-3.2-.8l.7-2.1c.8.4 1.6.7 2.5.7 1.3 0 2.2-.7 3.4-3.8l1.1-2.9-6.5-16.2h2.4l5.2 13.6 5.1-13.6h2.3l-6.4 16.3z" id="Gig_Economy"/><g id="polys" class="st2"><path class="st3" d="M66.4 76.2l7.5 4.3v8.7l-7.5 4.3-7.5-4.3v-8.7l7.5-4.3m0-1.1L57.9 80v9.8l8.5 4.9 8.5-4.9V80l-8.5-4.9z" id="poly_1"/><path class="st3" d="M85.9 76.2l7.5 4.3v8.7l-7.5 4.3-7.5-4.3v-8.7l7.5-4.3m0-1.1L77.5 80v9.8l8.5 4.9 8.5-4.9V80l-8.6-4.9z" id="poly_2"/><path class="st3" d="M75.7 92.8l7.5 4.3v8.7l-7.5 4.3-7.5-4.3v-8.7l7.5-4.3m0-1.1l-8.5 4.9v9.8l8.5 4.9 8.5-4.9v-9.8l-8.5-4.9z" id="poly_3"/><path class="st3" d="M56.3 92.8l7.5 4.3v8.7l-7.5 4.3-7.5-4.3v-8.7l7.5-4.3m0-1.1l-8.5 4.9v9.8l8.5 4.9 8.5-4.9v-9.8l-8.5-4.9z" id="poly_4"/><path class="st3" d="M46.8 76.2l7.5 4.3v8.7l-7.5 4.3-7.5-4.3v-8.7l7.5-4.3m0-1.1L38.3 80v9.8l8.5 4.9 8.5-4.9V80l-8.5-4.9z" id="poly_5"/><path class="st3" d="M57 59.6l7.5 4.3v8.7L57 76.9l-7.5-4.3v-8.7l7.5-4.3m0-1.2l-8.5 4.9v9.8L57 78l8.5-4.9v-9.8L57 58.4z" id="poly_6"/><path class="st3" d="M76.4 59.6l7.5 4.3v8.7l-7.5 4.3-7.5-4.3v-8.7l7.5-4.3m0-1.2l-8.5 4.9v9.8l8.5 4.9 8.5-4.9v-9.8l-8.5-4.9z" id="poly_7"/></g><g id="polys_i" class="st4"><path class="st3" d="M66.1 33.3l8 4.6v9.2l-8 4.6-8-4.6v-9.2l8-4.6m0-.6l-8.5 4.9v9.8l8.5 4.9 8.5-4.9v-9.8l-8.5-4.9z" id="poly_8_i_2_"/><path class="st3" d="M31.4 47.1l8 4.6V61l-8 4.6-8-4.6v-9.2l8-4.7m0-.6l-8.5 4.9v9.8l8.5 4.9 8.5-4.9v-9.8l-8.5-4.9z" id="poly_9_i_2_"/><path class="st3" d="M23.1 73.3l8 4.6v9.2l-8 4.6-8-4.6v-9.2l8-4.6m0-.6l-8.5 4.9v9.8l8.5 4.9 8.5-4.9v-9.8l-8.5-4.9z" id="poly_10_i_2_"/><path class="st3" d="M52.7 113.4l8 4.6v9.2l-8 4.6-8-4.6V118l8-4.6m0-.6l-8.5 4.9v9.8l8.5 4.9 8.5-4.9v-9.8l-8.5-4.9z" id="poly_11_i_2_"/></g><g id="polys_ii" class="st5"><path class="st3" d="M81.3 9.2l8 4.6V23l-8 4.6-8-4.6v-9.2l8-4.6m0-.6l-8.5 4.9v9.8l8.5 4.9 8.5-4.9v-9.8l-8.5-4.9z" id="poly_12_ii"/><path class="st3" d="M13.9 112.1l8 4.6v9.2l-8 4.6-8-4.6v-9.2l8-4.6m0-.5l-8.5 4.9v9.8l8.5 4.9 8.5-4.9v-9.8l-8.5-4.9z" id="poly_14_ii"/><path class="st3" d="M68.9 135.3l8 4.6v9.2l-8 4.6-8-4.6V140l8-4.7m0-.5l-8.5 4.9v9.8l8.5 4.9 8.5-4.9v-9.8l-8.5-4.9z" id="poly_15_ii_1_"/></g><g id="polys_iii" class="st5"><path class="st1" d="M59 151.4l8 4.6v9.2l-8 4.6-8-4.6V156l8-4.6m0-.6l-8.5 4.9v9.8l8.5 4.9 8.5-4.9v-9.8l-8.5-4.9z" id="poly_15_ii_copy_2_2_"/><path class="st3" d="M49 135l8 4.6v9.2l-8 4.6-8-4.6v-9.2l8-4.6m0-.5l-8.5 4.9v9.8l8.5 4.9 8.5-4.9v-9.8l-8.5-4.9z" id="poly_15_ii_copy_3_2_"/><path class="st1" d="M23.1 128.5l8 4.6v9.2l-8 4.6-8-4.6v-9.2l8-4.6m0-.6l-8.5 4.9v9.8l8.5 4.9 8.5-4.9v-9.8l-8.5-4.9z" id="poly_15_ii_copy_5_2_"/><path class="st1" d="M21.4 31.3l8 4.6v9.2l-8 4.6-8-4.6v-9.2l8-4.6m0-.6l-8.5 4.9v9.8l8.5 4.9 8.5-4.9v-9.8l-8.5-4.9z" id="poly_15_ii_copy_12_3_"/><path class="st3" d="M51.7 3.7l8 4.6v9.2l-8 4.6-8-4.6V8.3l8-4.6m0-.6L43.2 8v9.8l8.5 4.9 8.5-4.9V8l-8.5-4.9z" id="poly_15_ii_copy_13_2_"/></g></svg>