<?xml version="1.0" encoding="utf-8"?>
<!-- Generator: Adobe Illustrator 21.1.0, SVG Export Plug-In . SVG Version: 6.00 Build 0)  -->
<svg version="1.1" xmlns="http://www.w3.org/2000/svg" xmlns:xlink="http://www.w3.org/1999/xlink" x="0px" y="0px"
	 viewBox="0 0 305 173" style="enable-background:new 0 0 305 173;" xml:space="preserve">
<style type="text/css">
	.st0{fill:#003961;}
	.st1{font-family:'FreightSansProMedium-Regular';}
	.st2{font-size:28px;}
	.st3{fill:#2099B7;}
	.st4{font-family:'FreightTextProBook-Regular';}
	.st5{font-size:36px;}
	.st6{enable-background:new    ;}
	.st7{fill:#B31B1B;}
	.st8{opacity:0.549;enable-background:new    ;}
	.st9{opacity:0.2118;enable-background:new    ;}
</style>
<g id="DATA_HUB">
	<text transform="matrix(1 0 0 0.9 153.9536 118.0586)" class="st0 st1 st2">DATA HUB</text>
</g>
<g id="Gig_Economy">
	<text transform="matrix(1 0 0 1 100.7554 95.1787)" class="st3 st4 st5">Gig Economy</text>
</g>
<g id="polys" class="st6">
	<g id="poly_1">
		<g>
			<path class="st7" d="M68,75.8l7.3,4.2v8.4L68,92.6l-7.3-4.2V80L68,75.8 M68,75.2l-7.8,4.5v9l7.8,4.5l7.8-4.5v-9L68,75.2L68,75.2z
				"/>
		</g>
	</g>
	<g id="poly_2">
		<g>
			<path class="st7" d="M86,75.8l7.3,4.2v8.4L86,92.6l-7.3-4.2V80L86,75.8 M86,75.2l-7.8,4.5v9l7.8,4.5l7.8-4.5v-9L86,75.2L86,75.2z
				"/>
		</g>
	</g>
	<g id="poly_3">
		<g>
			<path class="st7" d="M77.5,91l7.3,4.2v8.4l-7.3,4.2l-7.3-4.2v-8.4L77.5,91 M77.5,90.5L69.7,95v9l7.8,4.5l7.8-4.5v-9L77.5,90.5
				L77.5,90.5z"/>
		</g>
	</g>
	<g id="poly_4">
		<g>
			<path class="st7" d="M58.8,91l7.3,4.2v8.4l-7.3,4.2l-7.3-4.2v-8.4L58.8,91 M58.8,90.5L51,95v9l7.8,4.5l7.8-4.5v-9L58.8,90.5
				L58.8,90.5z"/>
		</g>
	</g>
	<g id="poly_5">
		<g>
			<path class="st7" d="M50,75.8l7.3,4.2v8.4L50,92.6l-7.3-4.2V80L50,75.8 M50,75.2l-7.8,4.5v9l7.8,4.5l7.8-4.5v-9L50,75.2L50,75.2z
				"/>
		</g>
	</g>
	<g id="poly_6">
		<g>
			<path class="st7" d="M58.5,60.6l7.3,4.2v8.4l-7.3,4.2l-7.3-4.2v-8.4L58.5,60.6 M58.5,60l-7.8,4.5v9l7.8,4.5l7.8-4.5v-9L58.5,60
				L58.5,60z"/>
		</g>
	</g>
	<g id="poly_7">
		<g>
			<path class="st7" d="M77.2,60.6l7.3,4.2v8.4l-7.3,4.2l-7.3-4.2v-8.4L77.2,60.6 M77.2,60l-7.8,4.5v9l7.8,4.5l7.8-4.5v-9L77.2,60
				L77.2,60z"/>
		</g>
	</g>
</g>
<g id="polys_i" class="st8">
	<g id="poly_8_i_3_">
		<g>
			<path class="st7" d="M67.7,37l7.3,4.2v8.4l-7.3,4.2l-7.3-4.2v-8.4L67.7,37 M67.7,36.4l-7.8,4.5v9l7.8,4.5l7.8-4.5v-9L67.7,36.4
				L67.7,36.4z"/>
		</g>
	</g>
	<g id="poly_9_i_3_">
		<g>
			<path class="st7" d="M36,49.6l7.3,4.2v8.4L36,66.5l-7.3-4.2v-8.4L36,49.6 M36,49.1l-7.8,4.5v9l7.8,4.5l7.8-4.5v-9L36,49.1
				L36,49.1z"/>
		</g>
	</g>
	<g id="poly_10_i_3_">
		<g>
			<path class="st7" d="M28.3,73.6l7.3,4.2v8.4l-7.3,4.2L21,86.3v-8.4L28.3,73.6 M28.3,73.1l-7.8,4.5v9l7.8,4.5l7.8-4.5v-9
				L28.3,73.1L28.3,73.1z"/>
		</g>
	</g>
	<g id="poly_11_i_3_">
		<g>
			<path class="st7" d="M55.5,110.4l7.3,4.2v8.4l-7.3,4.2l-7.3-4.2v-8.4L55.5,110.4 M55.5,109.9l-7.8,4.5v9l7.8,4.5l7.8-4.5v-9
				L55.5,109.9L55.5,109.9z"/>
		</g>
	</g>
</g>
<g id="polys_ii" class="st9">
	<g id="poly_12_ii">
		<g>
			<path class="st7" d="M81.7,14.8L89,19v8.4l-7.3,4.2l-7.3-4.2V19L81.7,14.8 M81.7,14.3l-7.8,4.5v9l7.8,4.5l7.8-4.5v-9L81.7,14.3
				L81.7,14.3z"/>
		</g>
	</g>
	<g id="poly_14_ii">
		<g>
			<path class="st7" d="M23.8,112.3l7.3,4.2v8.4l-7.3,4.2l-7.3-4.2v-8.4L23.8,112.3 M23.8,111.7l-7.8,4.5v9l7.8,4.5l7.8-4.5v-9
				L23.8,111.7L23.8,111.7z"/>
		</g>
	</g>
	<g id="poly_15_ii_1_">
		<g>
			<path class="st7" d="M72.4,133.6l7.3,4.2v8.4l-7.3,4.2l-7.3-4.2v-8.4L72.4,133.6 M72.4,133l-7.8,4.5v9l7.8,4.5l7.8-4.5v-9
				L72.4,133L72.4,133z"/>
		</g>
	</g>
</g>
<g id="polys_iii" class="st9">
	<g id="poly_15_ii_copy_2_1_">
		<g>
			<path class="st3" d="M63.2,149.2l7.3,4.2v8.4l-7.3,4.2l-7.3-4.2v-8.4L63.2,149.2 M63.2,148.7l-7.8,4.5v9l7.8,4.5l7.8-4.5v-9
				L63.2,148.7L63.2,148.7z"/>
		</g>
	</g>
	<g id="poly_15_ii_copy_3_3_">
		<g>
			<path class="st7" d="M55,133.3l7.3,4.2v8.4l-7.3,4.2l-7.3-4.2v-8.4L55,133.3 M55,132.7l-7.8,4.5v9l7.8,4.5l7.8-4.5v-9L55,132.7
				L55,132.7z"/>
		</g>
	</g>
	<g id="poly_15_ii_copy_5_3_">
		<g>
			<path class="st7" d="M32.3,127.2l7.3,4.2v8.4l-7.3,4.2l-7.3-4.2v-8.4L32.3,127.2 M32.3,126.7l-7.8,4.5v9l7.8,4.5l7.8-4.5v-9
				L32.3,126.7L32.3,126.7z"/>
		</g>
	</g>
	<g id="poly_15_ii_copy_6_1_">
		<g>
			<path class="st3" d="M11.9,130.2l7.3,4.2v8.4l-7.3,4.2l-7.3-4.2v-8.4L11.9,130.2 M11.9,129.7l-7.8,4.5v9l7.8,4.5l7.8-4.5v-9
				L11.9,129.7L11.9,129.7z"/>
		</g>
	</g>
	<g id="poly_15_ii_copy_7_3_">
		<g>
			<path class="st7" d="M10.6,100l7.3,4.2v8.4l-7.3,4.2l-7.3-4.2v-8.4L10.6,100 M10.6,99.5L2.8,104v9l7.8,4.5l7.8-4.5v-9L10.6,99.5
				L10.6,99.5z"/>
		</g>
	</g>
	<g id="poly_15_ii_copy_12_1_">
		<g>
			<path class="st3" d="M26.8,35.1l7.3,4.2v8.4L26.8,52l-7.3-4.2v-8.4L26.8,35.1 M26.8,34.5L19,39v9l7.8,4.5l7.8-4.5v-9L26.8,34.5
				L26.8,34.5z"/>
		</g>
	</g>
	<g id="poly_15_ii_copy_13_3_">
		<g>
			<path class="st7" d="M57.5,13.1l7.3,4.2v8.4l-7.3,4.2l-7.3-4.2v-8.4L57.5,13.1 M57.5,12.5L49.7,17v9l7.8,4.5l7.8-4.5v-9
				L57.5,12.5L57.5,12.5z"/>
		</g>
	</g>
	<g id="poly_15_ii_copy_14_3_">
		<g>
			<path class="st3" d="M42.8,2.5l7.3,4.2v8.4l-7.3,4.2l-7.3-4.2V6.7L42.8,2.5 M42.8,1.9L35,6.4v9l7.8,4.5l7.8-4.5v-9L42.8,1.9
				L42.8,1.9z"/>
		</g>
	</g>
</g>
</svg>
